<svg width="360" height="96" viewBox="0 0 360 96" fill="none" xmlns="http://www.w3.org/2000/svg">
    <rect x="0.5" y="0.5" width="359" height="95" rx="4.5" stroke="#9747FF" stroke-dasharray="10 5" />
    <path
        d="M162.688 35.4715L149.042 64.9624H146.02L132.374 35.4715H139.499L147.499 54.8294L155.547 35.4715H162.672H162.688Z"
        fill="#2F618F" />
    <path
        d="M173.026 42.6729V64.7234H167.475V47.3889H163.928V42.6729H173.026ZM169.781 31.1857C170.831 31.1857 171.737 31.5521 172.501 32.3009C173.264 33.0498 173.63 33.926 173.63 34.9457C173.63 35.9654 173.248 36.8098 172.501 37.5746C171.737 38.3393 170.847 38.7058 169.781 38.7058C168.716 38.7058 167.841 38.3234 167.093 37.5746C166.346 36.8098 165.98 35.9495 165.98 34.9457C165.98 33.942 166.346 33.0498 167.093 32.3009C167.841 31.5521 168.732 31.1857 169.781 31.1857Z"
        fill="#2F618F" />
    <path
        d="M199.634 33.2888V64.7394H194.083V61.0271C193.447 62.2221 192.509 63.2417 191.284 64.1021C190.06 64.9624 188.628 65.3926 186.99 65.3926C185.209 65.3926 183.571 64.9465 182.076 64.0384C180.565 63.1302 179.372 61.8237 178.465 60.103C177.559 58.3823 177.113 56.3111 177.113 53.8575C177.113 51.4039 177.575 49.3168 178.497 47.5642C179.419 45.8117 180.66 44.4733 182.219 43.5174C183.777 42.5774 185.511 42.0994 187.404 42.0994C188.596 42.0994 189.805 42.3703 191.03 42.9279C192.254 43.4855 193.272 44.2184 194.099 45.1584V33.2728H199.65L199.634 33.2888ZM188.517 47.5642C187.356 47.5642 186.354 47.8669 185.527 48.4564C184.7 49.0619 184.048 49.8266 183.586 50.7666C183.125 51.7067 182.887 52.7423 182.887 53.8416C182.887 55.4986 183.396 56.9166 184.398 58.0796C185.4 59.2427 186.736 59.8322 188.406 59.8322C189.392 59.8322 190.33 59.5773 191.189 59.0515C192.048 58.5257 192.747 57.7928 193.288 56.8528C193.829 55.9128 194.099 54.7657 194.099 53.4274V50.2887C193.304 49.4442 192.461 48.7751 191.539 48.2971C190.616 47.8191 189.614 47.5802 188.549 47.5802L188.517 47.5642Z"
        fill="#2F618F" />
    <path
        d="M214.743 42.0994C216.906 42.0994 218.767 42.5614 220.326 43.5014C221.885 44.4414 223.077 45.716 223.92 47.373C224.747 49.014 225.161 50.9259 225.161 53.0768V55.4348H209.145C209.431 56.9165 210.163 58.1115 211.34 59.0196C212.501 59.9278 213.932 60.3739 215.634 60.3739C217.336 60.3739 218.704 60.0552 220.008 59.4179C221.312 58.7806 222.362 58.1274 223.157 57.4582L223.109 62.6203C222.409 63.2258 221.36 63.8471 219.976 64.4844C218.592 65.1058 217.066 65.4244 215.396 65.4244C213.201 65.4244 211.213 64.9305 209.431 63.9427C207.634 62.9549 206.203 61.6007 205.137 59.88C204.071 58.1593 203.547 56.1996 203.547 53.985C203.547 51.7703 204.024 49.8585 204.994 48.09C205.964 46.3215 207.284 44.8716 208.97 43.7882C210.656 42.6889 212.58 42.1472 214.743 42.1472V42.0994ZM214.616 46.9428C213.248 46.9428 212.087 47.373 211.165 48.2015C210.227 49.0459 209.59 50.1771 209.24 51.611H219.833C219.722 50.0337 219.133 48.8707 218.083 48.09C217.034 47.3252 215.889 46.9269 214.632 46.9269L214.616 46.9428Z"
        fill="#2F618F" />
    <path
        d="M234.386 42.6729V45.8116C235.054 44.9035 235.96 44.0591 237.121 43.2784C238.266 42.4977 239.586 42.0994 241.081 42.0994C243.324 42.0994 245.201 42.8641 246.728 44.3777C248.239 45.8913 249.002 48.1696 249.002 51.1968V64.7393H243.451L243.404 51.9456C243.404 50.4639 243.054 49.3486 242.338 48.6317C241.622 47.9147 240.636 47.5323 239.38 47.5323C238.394 47.5323 237.455 47.851 236.596 48.4883C235.738 49.1256 235.006 49.8903 234.386 50.7666V64.7393H228.835V42.6889H234.386V42.6729Z"
        fill="#2F618F" />
    <path
        d="M261.344 36.2522V42.673H267.467V47.3093H261.344V56.8369C261.344 57.8247 261.567 58.6054 262.028 59.179C262.473 59.7525 263.157 60.0234 264.064 60.0234C264.843 60.0234 265.527 59.9437 266.099 59.7685C266.672 59.5932 267.197 59.3542 267.69 59.0196V63.4329C267.133 63.9906 266.433 64.4526 265.606 64.835C264.779 65.2174 263.73 65.4085 262.473 65.4085C260.485 65.4085 258.879 64.7712 257.638 63.5126C256.398 62.2539 255.777 60.5014 255.777 58.2868V47.3252H251.801V44.4893C253.201 43.9954 254.489 43.0553 255.682 41.7011C256.859 40.3309 257.797 38.5305 258.497 36.2841H261.344V36.2522Z"
        fill="#2F618F" />
    <path
        d="M279.873 42.6729V64.7234H274.322V47.3889H270.775V42.6729H279.873ZM276.628 31.1857C277.678 31.1857 278.584 31.5521 279.348 32.3009C280.111 33.0498 280.477 33.926 280.477 34.9457C280.477 35.9654 280.095 36.8098 279.348 37.5746C278.584 38.3393 277.694 38.7058 276.628 38.7058C275.563 38.7058 274.688 38.3234 273.94 37.5746C273.193 36.8098 272.827 35.9495 272.827 34.9457C272.827 33.942 273.193 33.0498 273.94 32.3009C274.688 31.5521 275.578 31.1857 276.628 31.1857Z"
        fill="#2F618F" />
    <path
        d="M304.986 42.673V55.8172C304.986 57.761 304.541 59.4498 303.666 60.8678C302.791 62.2858 301.598 63.3692 300.103 64.118C298.592 64.8828 296.906 65.2492 294.998 65.2492C293.089 65.2492 291.356 64.8668 289.861 64.118C288.366 63.3692 287.173 62.2699 286.314 60.8678C285.455 59.4498 285.026 57.7769 285.026 55.8172V42.673H290.624L290.672 54.8135C290.672 56.5342 291.069 57.8088 291.849 58.6532C292.628 59.4976 293.678 59.9119 294.998 59.9119C296.318 59.9119 297.32 59.4976 298.131 58.6532C298.942 57.8088 299.34 56.5342 299.34 54.8135V42.673H304.986Z"
        fill="#2F618F" />
    <path
        d="M315.499 42.6729V45.4611C316.167 44.6167 316.978 43.8519 317.932 43.1509C318.887 42.4499 320.095 42.0994 321.59 42.0994C323.086 42.0994 324.533 42.4499 325.789 43.1668C327.046 43.8838 328.016 44.9513 328.716 46.3852C329.59 45.1903 330.608 44.1865 331.785 43.3421C332.946 42.5136 334.314 42.0994 335.857 42.0994C337.4 42.0994 338.704 42.4339 339.928 43.119C341.153 43.8041 342.139 44.8079 342.887 46.1621C343.634 47.5005 344 49.1734 344 51.1809V64.7234H338.449L338.402 51.9297C338.402 50.448 338.02 49.3327 337.241 48.6157C336.461 47.8828 335.459 47.5164 334.203 47.5164C333.233 47.5164 332.406 47.8191 331.706 48.4086C331.006 49.014 330.354 49.7151 329.734 50.5276V64.7234H324.183L324.135 51.9297C324.135 50.448 323.754 49.3327 322.974 48.6157C322.195 47.8828 321.193 47.5164 319.984 47.5164C319.046 47.5164 318.219 47.8032 317.487 48.3608C316.755 48.9184 316.103 49.5876 315.515 50.3524V64.7234H309.964V42.6729H315.515H315.499Z"
        fill="#2F618F" />
    <path
        d="M78.2761 69.5296C82.7195 68.2436 86.6401 66.0257 90.1917 63.0763C93.6511 60.2038 96.48 56.7923 99.0784 53.1729C100.485 51.2168 101.669 49.0914 102.938 47.0352C103.237 46.5501 103.291 46.1265 102.776 45.6414C101.231 44.1782 99.8087 42.5841 98.2405 41.1594C96.1572 39.2573 93.9816 37.4553 91.8291 35.6302C89.0232 33.2583 85.9944 31.2176 82.8271 29.3616C79.6138 27.4826 76.2697 25.8731 72.7412 24.641C69.8276 23.6244 66.8449 22.8929 63.793 22.5309C60.9102 22.1844 58.0197 22.092 55.0985 22.4231C51.4623 22.839 47.9491 23.6553 44.5359 24.9413C39.7697 26.7433 35.4339 29.3308 31.3673 32.3804C27.5851 35.222 24.2256 38.5334 20.9354 41.9218C20.282 42.5995 19.7054 43.3465 19.0904 44.055C18.9213 44.2475 18.7137 44.4169 18.5215 44.6018C18.4677 44.5478 18.4062 44.5016 18.3524 44.4477C18.9597 43.6622 19.5286 42.8382 20.182 42.0913C22.2115 39.781 24.1795 37.4014 26.3627 35.2451C28.692 32.9426 31.152 30.7632 33.6966 28.7071C35.8644 26.9589 38.163 25.3341 40.5461 23.8863C42.9446 22.4308 45.4584 21.1139 48.0414 20.0127C50.6244 18.9115 53.3227 18.0259 56.044 17.302C58.1427 16.7475 60.3336 16.5165 62.4938 16.2778C64.3157 16.0775 66.1607 15.9543 67.9826 16.0159C72.6259 16.1623 77.1768 16.9863 81.5894 18.4571C83.5651 19.1117 85.5177 19.8741 87.3704 20.8059C90.1917 22.2152 92.9976 23.6784 95.6575 25.3572C98.1867 26.9512 100.547 28.8226 102.922 30.6477C106.774 33.6125 110.218 37.0394 113.569 40.5511C115.553 42.6303 117.39 44.8482 119.281 47.0121C119.412 47.1662 119.473 47.3741 119.65 47.7206C118.412 47.7206 117.336 47.813 116.283 47.6975C114.546 47.505 113.362 48.0133 112.224 49.4841C110.54 51.6558 108.519 53.5656 106.581 55.5294C103.783 58.3633 100.685 60.8276 97.3487 63.0146C94.0892 65.1555 90.6606 66.9421 86.9399 68.0819C84.7182 68.7595 82.3966 69.0984 80.1058 69.5681C79.5061 69.6913 78.8911 69.7221 78.2838 69.7915V69.545L78.2761 69.5296Z"
        fill="#2F618F" />
    <path
        d="M16 48.4061C17.5375 48.4061 19.0058 48.3136 20.451 48.4369C21.3658 48.5216 21.7118 47.9363 22.1807 47.4434C24.5561 44.9329 26.8701 42.3685 29.2916 39.8965C31.8054 37.3244 34.6728 35.1605 37.6709 33.1813C42.0682 30.2858 46.819 28.1911 51.9696 27.0745C53.3534 26.7742 54.7755 26.651 56.1823 26.4584C56.2823 26.443 56.3976 26.5046 56.6897 26.5816C55.4597 27.0437 54.3988 27.4287 53.361 27.8446C50.4782 28.9997 47.8645 30.6246 45.4814 32.5961C43.8132 33.9745 42.1835 35.4377 40.7459 37.0472C38.9932 39.0109 37.3865 41.1287 35.8336 43.2618C34.596 44.9714 33.5505 46.812 32.3897 48.5755C32.036 49.1145 32.0053 49.4919 32.528 49.9924C34.2577 51.6481 35.8644 53.4347 37.6325 55.0442C40.1002 57.2775 42.5832 59.5262 45.2354 61.5207C47.9721 63.5769 50.8472 65.479 53.7992 67.2117C56.1132 68.5671 58.6193 69.6067 61.0869 70.6848C63.7007 71.8245 66.4451 72.5638 69.251 73.0721C72.5412 73.6651 75.8469 73.9038 79.1986 73.6882C82.4427 73.4802 85.5946 72.8873 88.6849 71.917C91.7906 70.9389 94.7964 69.6991 97.5716 67.9741C99.8394 66.5648 102.123 65.1709 104.267 63.5923C106.166 62.1984 107.98 60.6582 109.679 59.0256C112.062 56.7307 114.292 54.2741 116.59 51.8946C116.683 51.7945 116.844 51.7636 117.09 51.7945C116.736 52.2873 116.406 52.8033 116.029 53.2807C113.439 56.5074 110.656 59.557 107.673 62.4294C104.882 65.117 101.9 67.5659 98.7401 69.8146C95.7036 71.9709 92.4902 73.8191 89.1231 75.3978C85.3332 77.169 81.3818 78.4935 77.2614 79.2251C75.5932 79.5255 73.8942 79.6949 72.203 79.8412C70.8346 79.9567 69.4509 80.0183 68.0748 79.9952C64.7154 79.9336 61.3714 79.5948 58.1273 78.663C55.6135 77.9468 53.0843 77.2383 50.6627 76.2911C46.2655 74.5661 42.1297 72.3097 38.3013 69.5374C35.8106 67.7354 33.3352 65.8948 31.0059 63.9003C28.3922 61.667 25.863 59.3106 23.4415 56.8694C21.166 54.5745 19.0827 52.0948 16.9148 49.6998C16.6227 49.3764 16.3459 49.0529 16.0692 48.7218C16.0307 48.6756 16.0384 48.5832 16.0077 48.3983L16 48.4061Z"
        fill="#2F618F" />
    <path
        d="M84.1185 31.8644C84.0878 31.9491 84.057 32.0338 84.0263 32.1185C83.2037 34.3518 82.3812 36.585 81.5586 38.8183C81.0359 40.243 80.5054 41.6676 79.9827 43.1C79.9596 43.1616 79.9442 43.2155 79.9289 43.2771C79.9212 43.3002 79.9058 43.3233 79.8904 43.3541C79.8366 43.5005 79.7828 43.6468 79.729 43.7931C79.6752 43.9394 79.6214 44.078 79.5676 44.2243C79.5291 44.3322 79.4907 44.44 79.4522 44.5478C79.4061 44.671 79.3523 44.7942 79.3062 44.9251C79.2831 44.9867 79.2754 45.056 79.2447 45.11C79.1986 45.1947 79.1678 45.2871 79.1371 45.3795C79.0986 45.495 79.0448 45.6028 79.0064 45.7183C78.9526 45.88 78.8834 46.0341 78.8372 46.1958C78.8065 46.2882 78.7681 46.3806 78.7373 46.4653C78.6912 46.5962 78.6374 46.7271 78.5912 46.8581C78.5682 46.9197 78.5451 46.9813 78.5221 47.0429C78.499 47.1045 78.4682 47.1584 78.4606 47.22C78.4375 47.3355 78.3606 47.4356 78.3452 47.5511C78.2991 47.6282 78.2837 47.7206 78.2453 47.813C78.2069 47.9054 78.1684 47.9978 78.1454 48.1056C78.1454 48.121 78.1223 48.1364 78.1146 48.1518C78.0916 48.2134 78.0685 48.2827 78.0454 48.3443C78.0224 48.4059 78.007 48.4676 77.9839 48.5215C77.9455 48.6139 77.8994 48.714 77.884 48.8218C77.884 48.8372 77.8609 48.8526 77.8532 48.868C77.8148 48.9681 77.7764 49.0682 77.7533 49.176C77.7533 49.1914 77.7379 49.2068 77.7379 49.2145C77.7226 49.2453 77.7072 49.2762 77.6918 49.307C77.6611 49.4148 77.6226 49.5149 77.5842 49.615C77.5534 49.6997 77.5304 49.7921 77.4843 49.8768C77.4843 49.9538 77.4151 50.0077 77.4151 50.0847C77.3766 50.1233 77.392 50.1772 77.3536 50.2157C77.3459 50.2927 77.2767 50.362 77.2767 50.4467C77.2383 50.5237 77.2306 50.6161 77.1768 50.6931C77.1537 50.7239 77.1537 50.7701 77.1383 50.8086C77.1229 50.8471 77.1229 50.8856 77.1076 50.9241C77.0922 50.955 77.0768 50.9935 77.0691 51.0243C77.0538 51.0705 77.023 51.1167 77.0153 51.1706C76.9615 51.2553 76.9615 51.3631 76.9077 51.4555C76.9 51.4709 76.9 51.4863 76.8923 51.5017C76.8693 51.5633 76.8616 51.6249 76.8231 51.6711C76.8078 51.6942 76.8231 51.725 76.8001 51.7481C76.7847 51.7712 76.7847 51.8021 76.7693 51.8252C76.7463 51.8714 76.7386 51.9176 76.7155 51.9638C76.6771 52.0639 76.6309 52.1563 76.6156 52.2564C76.6156 52.2872 76.5925 52.3257 76.5771 52.3565C76.5541 52.4104 76.5541 52.4643 76.5233 52.5105C76.5003 52.5413 76.4695 52.5721 76.4849 52.6183C76.4464 52.6492 76.4541 52.7108 76.4311 52.7493C76.408 52.7801 76.408 52.834 76.3926 52.8725C76.3773 52.9033 76.3619 52.9341 76.3542 52.9726C76.3542 53.0111 76.3311 53.0573 76.3158 53.0958C76.285 53.1574 76.285 53.2344 76.2312 53.2883C76.2389 53.3499 76.1774 53.3884 76.1928 53.4501C76.1774 53.4809 76.162 53.504 76.162 53.5425C76.162 53.5733 76.1313 53.5887 76.1236 53.6195C76.1236 53.6426 76.1005 53.6657 76.1005 53.6965C76.1005 53.7273 76.0544 53.7427 76.0698 53.7812C76.0698 53.8043 76.0698 53.8274 76.0467 53.8351C76.0467 53.8351 76.039 53.8505 76.039 53.8582C76.039 53.8967 76.0236 53.9198 76.0083 53.9506C75.9929 53.9891 75.9698 54.0199 75.9698 54.0661C75.9698 54.0892 75.9314 54.1046 75.9391 54.1431C75.9391 54.1739 75.9314 54.1893 75.9083 54.2047V54.2201C75.916 54.2663 75.8853 54.3049 75.8699 54.3434C75.8622 54.3665 75.8468 54.3819 75.8468 54.4127C75.8468 54.4281 75.8391 54.4435 75.8314 54.4512C75.8314 54.4666 75.8161 54.482 75.8161 54.4974C75.8161 54.5205 75.8161 54.5436 75.793 54.5667C75.7853 54.5667 75.7853 54.5898 75.7853 54.5975C75.7853 54.6283 75.7776 54.6514 75.7546 54.6745C75.7315 54.6976 75.7238 54.7438 75.7161 54.7746C75.7161 54.8131 75.6777 54.8362 75.6854 54.8824C75.6854 54.9055 75.6623 54.9286 75.6546 54.9594C75.6546 54.9825 75.6546 55.0133 75.6239 55.0364C75.6239 55.0364 75.6239 55.0441 75.6239 55.0518C75.6239 55.098 75.6008 55.1289 75.5855 55.1674C75.5701 55.1982 75.5547 55.2213 75.5547 55.2521C75.5547 55.2752 75.5316 55.2983 75.5239 55.3291C75.5239 55.3522 75.524 55.383 75.5009 55.3984C75.5009 55.3984 75.4932 55.4138 75.4932 55.4215C75.4932 55.4754 75.4624 55.5216 75.4317 55.5601C75.4317 55.5601 75.424 55.5755 75.424 55.5832C75.424 55.6371 75.3779 55.6756 75.3933 55.7218C75.3625 55.7526 75.3625 55.7911 75.3548 55.8219C75.3471 55.8527 75.3164 55.8835 75.301 55.9143C75.301 55.922 75.2933 55.9297 75.2933 55.9374C75.2933 55.976 75.2703 55.9991 75.2626 56.0299C75.2626 56.0607 75.2549 56.0915 75.2318 56.1146C75.2088 56.1377 75.2318 56.1762 75.2088 56.1993C75.1857 56.2224 75.1703 56.2532 75.1703 56.2763C75.1703 56.3302 75.1319 56.3687 75.1319 56.4149C75.1319 56.438 75.1088 56.4611 75.1011 56.4765C75.0934 56.4996 75.1088 56.5304 75.0781 56.5535C75.055 56.5689 75.055 56.5997 75.0396 56.6228C75.0396 56.6228 75.032 56.6305 75.032 56.6382C75.0473 56.6921 74.9935 56.7306 74.9935 56.7768C74.9628 56.8462 74.9551 56.9232 74.909 56.9848C74.909 56.9848 74.9013 56.9925 74.9013 57.0002C74.909 57.0541 74.8551 57.0926 74.8628 57.1465C74.8244 57.2081 74.8321 57.2928 74.7783 57.3467C74.7783 57.3467 74.7706 57.3621 74.7783 57.3621C74.786 57.416 74.7321 57.4545 74.7398 57.5161C74.6937 57.57 74.7014 57.6471 74.6553 57.7087C74.6476 57.7164 74.6399 57.7395 74.6399 57.7549C74.6399 57.778 74.6399 57.8011 74.6168 57.8165C74.6168 57.8165 74.6091 57.8242 74.6091 57.8319C74.6168 57.8858 74.5707 57.9243 74.5707 57.9859C74.5707 58.009 74.5553 58.0321 74.54 58.0552C74.5246 58.086 74.5092 58.1091 74.5015 58.1476C74.5015 58.1707 74.4785 58.1938 74.4708 58.2246C74.4708 58.2477 74.4631 58.2708 74.4477 58.2939C74.4246 58.3247 74.4323 58.3709 74.4093 58.4094C74.3862 58.4479 74.3631 58.4788 74.3631 58.5327C74.3631 58.5558 74.3247 58.5712 74.3324 58.602C74.3324 58.6328 74.317 58.6482 74.3016 58.6636C74.3016 58.7252 74.2709 58.7714 74.2401 58.8253C74.2401 58.8792 74.194 58.9177 74.2017 58.9716C74.2017 58.9947 74.1786 59.0024 74.1786 59.0178C74.1633 59.0794 74.1402 59.141 74.1095 59.1949C74.1171 59.2488 74.0633 59.2873 74.071 59.3413C74.0556 59.3721 74.0403 59.4029 74.0326 59.4414C74.0326 59.4722 74.0018 59.503 73.9788 59.5338C73.9788 59.5338 73.9711 59.5415 73.9711 59.5492C73.9788 59.6031 73.9326 59.6339 73.9326 59.6801C73.9326 59.7263 73.8788 59.7571 73.8942 59.811C73.8711 59.8264 73.8558 59.8572 73.825 59.8649C73.679 59.8957 73.5406 59.9419 73.3945 59.9727C73.2408 60.0035 73.087 60.042 72.9333 60.0651C72.8103 60.0882 72.6873 60.0959 72.5566 60.1113C72.3952 60.1267 72.2337 60.1344 72.0646 60.1344C71.734 60.1344 71.4035 60.0959 71.0729 60.0266C70.9115 59.9881 70.75 59.965 70.604 59.9034C70.3964 59.8187 70.1965 59.734 69.989 59.6416C69.8506 59.58 69.7199 59.4876 69.6046 59.3952C69.5662 59.3644 69.52 59.3336 69.4816 59.3027C69.4201 59.2565 69.3663 59.2103 69.3048 59.1564C69.1895 59.0563 68.9358 58.7483 68.8512 58.6174C68.8359 58.5866 68.8128 58.5635 68.7897 58.5327C68.7205 58.4479 68.6667 58.3555 68.6206 58.2631C68.5745 58.1553 68.5053 58.0552 68.4515 57.9474C68.4054 57.8704 68.3669 57.8011 68.3362 57.7241C68.3285 57.6933 68.3131 57.6625 68.29 57.6393C68.2132 57.5238 68.1517 57.3929 68.0902 57.262C68.0748 57.2312 68.0671 57.2004 68.0517 57.1696C68.0364 57.1388 68.0056 57.1157 68.0056 57.0849C67.9441 57.0464 67.9518 56.9617 67.8903 56.9155C67.8826 56.8616 67.8519 56.8153 67.8211 56.7691C67.8365 56.7306 67.7904 56.7229 67.7827 56.6998C67.7519 56.6305 67.7212 56.5535 67.6827 56.4842C67.6597 56.4303 67.6289 56.3764 67.5982 56.3302C67.5982 56.3302 67.5828 56.3148 67.5828 56.3071C67.5828 56.2763 67.5828 56.2455 67.5521 56.2147C67.529 56.1916 67.529 56.1454 67.5136 56.1146C67.4982 56.0838 67.4752 56.0607 67.4598 56.0299C67.4214 55.9605 67.3906 55.8989 67.3599 55.8296C67.3445 55.7988 67.3676 55.7526 67.3214 55.7295C67.3214 55.691 67.2907 55.6679 67.283 55.6371C67.2676 55.5986 67.2369 55.5601 67.2292 55.5139C67.2215 55.4754 67.1754 55.46 67.1831 55.4138C67.1523 55.3984 67.16 55.3676 67.1523 55.3368C67.1523 55.3214 67.1292 55.306 67.1216 55.2829C67.0908 55.2136 67.0601 55.152 67.0293 55.0826C66.9986 55.021 66.9601 54.9671 66.9371 54.9055C66.9371 54.8978 66.9217 54.8824 66.9217 54.8747C66.9217 54.8208 66.8909 54.7823 66.8679 54.7438C66.8217 54.6514 66.7756 54.559 66.7218 54.4666C66.7064 54.4358 66.7218 54.405 66.6987 54.3819C66.6834 54.3203 66.6372 54.274 66.6142 54.2124C66.5911 54.1508 66.5604 54.0969 66.5296 54.043C66.5066 54.0122 66.5296 53.966 66.4912 53.9429C66.4989 53.9044 66.4528 53.889 66.4451 53.8582C66.4451 53.8274 66.4297 53.7889 66.4066 53.7735C66.3759 53.7504 66.3913 53.7042 66.3605 53.6888C66.3528 53.6888 66.3528 53.658 66.3605 53.6426C66.3989 53.5425 66.4374 53.4501 66.4527 53.3422C66.4527 53.3114 66.4835 53.2883 66.4989 53.2652C66.5143 53.2344 66.5143 53.1959 66.5296 53.1651C66.545 53.1343 66.5527 53.1112 66.5604 53.0804C66.5757 53.0188 66.6065 52.9495 66.6296 52.8879C66.6603 52.8109 66.6911 52.7262 66.7141 52.6415C66.7141 52.6261 66.7295 52.6106 66.7295 52.5875C66.7449 52.549 66.7679 52.5105 66.7756 52.4643C66.7833 52.4258 66.8217 52.395 66.8217 52.3488C66.8217 52.318 66.8448 52.2872 66.8525 52.2487C66.8525 52.2179 66.8832 52.1948 66.8986 52.164C66.9217 52.1024 66.9371 52.0485 66.9524 51.9869C66.9601 51.9561 66.9909 51.9253 66.9832 51.8868C66.9832 51.856 67.0293 51.8406 67.0216 51.8021C67.0601 51.7558 67.0524 51.6942 67.0831 51.648C67.0831 51.6018 67.1216 51.5633 67.1216 51.5171C67.1216 51.5017 67.1523 51.4863 67.1523 51.4709C67.1523 51.4247 67.1984 51.3939 67.1907 51.3477C67.2369 51.2861 67.2292 51.2091 67.2753 51.1552C67.2907 51.1321 67.283 51.1013 67.2984 51.0782C67.3137 51.0551 67.3291 51.032 67.3291 51.0012C67.3291 50.9781 67.3522 50.9627 67.3599 50.9473C67.3599 50.8702 67.4291 50.8163 67.4291 50.7393C67.4675 50.6931 67.4521 50.6315 67.4906 50.5853C67.4906 50.5083 67.5521 50.4544 67.5597 50.3774C67.5674 50.3312 67.5905 50.285 67.6059 50.2388C67.6289 50.1772 67.652 50.1078 67.6904 50.0462C67.6981 50.0308 67.6904 50 67.6981 49.9846C67.7135 49.923 67.7442 49.8614 67.7596 49.7998C67.7596 49.7844 67.7827 49.7767 67.7827 49.7613C67.8057 49.7151 67.8288 49.6612 67.8442 49.6073C67.8596 49.5534 67.8903 49.5072 67.8903 49.4456C67.8903 49.4071 67.9364 49.3917 67.9364 49.3532C67.9364 49.3455 67.9595 49.3301 67.9595 49.3224C67.9595 49.2762 67.9902 49.2453 67.9979 49.1991C67.9979 49.1606 68.021 49.1221 68.021 49.0836C68.021 49.0528 68.0517 49.0528 68.0594 49.0297C68.0594 49.0143 68.0748 48.9989 68.0825 48.9758C68.0825 48.9681 68.0979 48.9527 68.0979 48.945C68.0979 48.9065 68.1209 48.8834 68.1286 48.8449C68.1363 48.8141 68.1363 48.7833 68.1671 48.7602C68.1671 48.6832 68.2286 48.6216 68.2362 48.5446C68.2747 48.5061 68.2747 48.4599 68.2824 48.4136C68.3054 48.3366 68.3439 48.2673 68.3592 48.1903C68.3669 48.1518 68.4131 48.121 68.3977 48.0825C68.4361 48.0363 68.4284 47.9747 68.4592 47.9285C68.4745 47.8977 68.5053 47.8746 68.5053 47.8284C68.5053 47.7899 68.5437 47.7668 68.536 47.7206C68.5745 47.6821 68.5514 47.6128 68.5975 47.5819C68.6206 47.5126 68.6437 47.451 68.6667 47.3817C68.6667 47.3663 68.6667 47.3355 68.6898 47.3355C68.7206 47.3124 68.7129 47.2739 68.7436 47.2508C68.7436 47.1969 68.782 47.1584 68.7897 47.1045C68.7897 47.066 68.8282 47.0429 68.8205 46.9967C68.8205 46.9659 68.8589 46.9428 68.8666 46.9043C68.8666 46.8812 68.8897 46.8581 68.8897 46.835C68.8897 46.8119 68.9204 46.7965 68.9204 46.7811C68.9204 46.7271 68.9742 46.6886 68.9589 46.6347C68.9589 46.627 68.9589 46.6193 68.9589 46.6116C68.9819 46.5654 69.0127 46.5192 69.0127 46.4653C69.0127 46.4345 69.0588 46.4268 69.0511 46.396C69.0511 46.3729 69.0588 46.3498 69.0742 46.3267C69.0742 46.319 69.0742 46.3036 69.0742 46.2882C69.0742 46.2651 69.0742 46.242 69.0972 46.2266C69.0972 46.2266 69.1049 46.2112 69.1126 46.2035C69.1203 46.165 69.128 46.1265 69.1434 46.0957C69.1587 46.0649 69.1818 46.0418 69.1818 46.0033C69.1818 45.9725 69.2202 45.9571 69.2125 45.9185C69.2049 45.8877 69.2433 45.8723 69.251 45.8492C69.2664 45.7799 69.3048 45.7183 69.3125 45.649C69.3125 45.6105 69.3509 45.5874 69.3509 45.5489C69.3509 45.5181 69.3894 45.4873 69.397 45.4565C69.4047 45.4103 69.4278 45.3641 69.4432 45.3179C69.4432 45.2948 69.4432 45.264 69.4739 45.2486C69.4739 45.2486 69.4739 45.2486 69.4739 45.2409C69.4739 45.1947 69.497 45.1639 69.5124 45.1254C69.5431 45.0483 69.5739 44.9636 69.6046 44.8866C69.62 44.8558 69.6046 44.8173 69.6354 44.7942C69.6584 44.7788 69.6507 44.7326 69.6738 44.7095C69.6738 44.6633 69.7045 44.6325 69.7122 44.5863C69.7276 44.5478 69.7276 44.5093 69.743 44.4708C69.743 44.4477 69.766 44.4246 69.7737 44.4092C69.7891 44.3784 69.8045 44.3553 69.8045 44.3245C69.8045 44.2937 69.8275 44.2706 69.8352 44.2475C69.8429 44.2089 69.866 44.1704 69.8737 44.1242C69.8737 44.1011 69.8967 44.078 69.8967 44.0549C69.8967 44.0087 69.9429 43.9856 69.9429 43.9317C69.9429 43.8932 69.9813 43.8624 69.9813 43.8162C69.9813 43.7931 70.012 43.77 70.0044 43.7392C70.0044 43.7084 70.0351 43.693 70.0428 43.6699C70.0428 43.6314 70.0812 43.6006 70.0735 43.5621C70.112 43.5005 70.1197 43.4312 70.1504 43.3695C70.1812 43.3233 70.1965 43.2694 70.2042 43.2155C70.2042 43.2001 70.2119 43.1847 70.2196 43.177C70.2196 43.1693 70.235 43.1616 70.235 43.1539C70.2273 43.1 70.2734 43.0615 70.2811 43.0153C70.2888 42.9845 70.2965 42.9537 70.3119 42.9306C70.3272 42.8998 70.3349 42.8767 70.3426 42.8459C70.3503 42.8074 70.3657 42.7766 70.3734 42.7381C70.381 42.7073 70.4041 42.6842 70.4195 42.6457C70.4349 42.5995 70.4656 42.5532 70.4656 42.507C70.4656 42.4608 70.504 42.43 70.504 42.3838C70.504 42.3453 70.5425 42.3145 70.5502 42.276C70.5732 42.1913 70.627 42.1066 70.6424 42.0142C70.6424 41.9911 70.6655 41.9757 70.6732 41.9603C70.6732 41.9141 70.7193 41.8756 70.7116 41.8294C70.7577 41.7986 70.727 41.737 70.7731 41.7061C70.7731 41.6214 70.8423 41.5598 70.8423 41.4828C70.8807 41.4443 70.8653 41.3904 70.9038 41.3519C70.9038 41.2903 70.9576 41.2364 70.9653 41.1825C70.973 41.1363 71.0037 41.0978 71.0114 41.0516C71.0114 41.0054 71.0498 40.9746 71.0498 40.9284C71.0498 40.913 71.0806 40.8898 71.0806 40.8744C71.0806 40.8359 71.1267 40.8128 71.119 40.7743C71.119 40.7358 71.1498 40.7127 71.1498 40.6665C71.1498 40.6357 71.1728 40.5972 71.1805 40.5587C71.1805 40.5279 71.2113 40.5048 71.2267 40.474C71.2343 40.4509 71.2497 40.4355 71.2497 40.4047V40.3893C71.2959 40.3585 71.2728 40.2969 71.3035 40.2507C71.2959 40.1891 71.342 40.1583 71.3573 40.1121C71.3573 40.089 71.3727 40.0736 71.3804 40.0504C71.3804 40.0273 71.3804 40.0119 71.4035 40.0042C71.4035 40.0042 71.4188 39.9888 71.4188 39.9811C71.4112 39.9272 71.465 39.8887 71.4573 39.8425C71.4573 39.8425 71.465 39.8271 71.465 39.8194C71.488 39.7732 71.5188 39.7347 71.5188 39.6731C71.5188 39.65 71.5649 39.6346 71.5495 39.6038C71.5495 39.573 71.5649 39.5576 71.5803 39.5345C71.5957 39.5037 71.588 39.4729 71.6033 39.4344C71.6187 39.3959 71.6495 39.3574 71.6495 39.3035C71.6495 39.2804 71.6879 39.265 71.6802 39.2342C71.6802 39.2033 71.6879 39.1879 71.711 39.1725C71.711 39.0878 71.7878 39.0339 71.7802 38.9492C71.8263 38.9107 71.7955 38.8491 71.8417 38.8106C71.8417 38.8106 71.8417 38.7875 71.8417 38.7721C71.8417 38.7644 71.8417 38.749 71.8417 38.7413C71.8801 38.6951 71.8955 38.6412 71.9032 38.5796C71.9339 38.5488 71.9262 38.5103 71.9416 38.4795C71.9493 38.4487 71.9723 38.4256 71.98 38.3871C71.98 38.3562 72.0185 38.3331 72.0185 38.3023C72.0569 38.2638 72.0415 38.2099 72.0723 38.1637C72.0877 38.1406 72.0723 38.1098 72.103 38.0944C72.103 38.0944 72.103 38.0867 72.103 38.079C72.103 38.0174 72.1415 37.9789 72.1568 37.925C72.1568 37.9096 72.1645 37.8942 72.1722 37.8788C72.1722 37.8634 72.1722 37.848 72.1876 37.8326C72.2183 37.7941 72.2183 37.7479 72.2337 37.7017C72.2491 37.6786 72.2337 37.6401 72.2645 37.617C72.2645 37.617 72.2645 37.6093 72.2645 37.6016C72.2645 37.5399 72.2952 37.5014 72.326 37.4475C72.3413 37.4244 72.3337 37.3936 72.349 37.3705C72.3721 37.3397 72.349 37.3012 72.3721 37.2781C72.3952 37.255 72.3952 37.2242 72.4028 37.1934C72.4028 37.1626 72.449 37.1395 72.4413 37.101C72.4797 37.0625 72.4643 37.0086 72.4951 36.9701C72.5105 36.947 72.4951 36.9162 72.5182 36.8931C72.5412 36.8777 72.5182 36.8315 72.5566 36.8238C72.5566 36.8238 72.5643 36.8084 72.5643 36.8007C72.5643 36.7699 72.5797 36.7468 72.595 36.716C72.6104 36.6928 72.595 36.6543 72.6258 36.6312C72.6258 36.5927 72.6258 36.5542 72.6565 36.5157C72.6488 36.4772 72.695 36.4695 72.695 36.4387C72.695 36.4079 72.695 36.3848 72.718 36.3617C72.7334 36.3386 72.718 36.3001 72.7411 36.277C72.7642 36.2539 72.7795 36.2231 72.7795 36.2C72.7795 36.1461 72.8103 36.1076 72.818 36.0614C72.818 36.0229 72.8487 35.9921 72.8641 35.9536C72.8641 35.9459 72.8795 35.9305 72.8795 35.9228C72.8795 35.8689 72.9102 35.8303 72.9333 35.7841C72.9333 35.7764 72.9487 35.761 72.9487 35.7533C72.9487 35.7225 72.964 35.6917 72.9794 35.6686C73.0102 35.5993 73.0486 35.53 73.0563 35.453C73.0563 35.4376 73.087 35.4222 73.087 35.4068C73.087 35.3606 73.1331 35.3298 73.1255 35.2836C73.1255 35.2759 73.1332 35.2605 73.1408 35.2528C73.1793 35.2066 73.1793 35.145 73.2177 35.1065C73.2331 35.0217 73.2869 34.9601 73.31 34.8831C73.3253 34.8292 73.3484 34.7753 73.3791 34.7291C73.3791 34.7291 73.3791 34.7214 73.3791 34.7137C73.3791 34.6906 73.3792 34.6675 73.3868 34.6367C73.4176 34.629 73.4099 34.5982 73.4253 34.5751C73.433 34.552 73.4483 34.5289 73.456 34.5058C73.4868 34.4365 73.5252 34.3672 73.556 34.2979C73.579 34.2517 73.6098 34.2132 73.6098 34.1592V34.1438C73.6482 34.1284 73.6251 34.0899 73.6482 34.0668C73.679 34.036 73.6943 33.9975 73.7097 33.959C73.7174 33.9282 73.7251 33.882 73.7635 33.8666C73.7635 33.8281 73.7943 33.805 73.8096 33.7819C73.825 33.7588 73.8327 33.7357 73.8481 33.7126C73.8865 33.6433 73.9326 33.574 73.9634 33.5047C73.9865 33.4662 74.0095 33.4277 74.0403 33.3892C74.048 33.3738 74.0556 33.3661 74.0633 33.3506C74.0633 33.3429 74.0633 33.3275 74.071 33.3275C74.1325 33.2967 74.1325 33.2274 74.1786 33.1889C74.2017 33.1658 74.1863 33.1273 74.2248 33.1119C74.2478 33.1042 74.2632 33.0734 74.2863 33.0503C74.3016 33.0349 74.317 33.0195 74.3247 33.0041C74.3247 32.9579 74.3708 32.9425 74.3939 32.9117C74.4477 32.8501 74.5092 32.7962 74.563 32.7346C74.9474 32.3495 75.4086 32.1185 75.9391 32.003C76.1389 31.9568 76.3465 31.926 76.5541 31.9029C76.7078 31.8875 76.8616 31.8798 77.0153 31.8644C77.2152 31.849 77.4074 31.849 77.6073 31.8413C77.638 31.8413 77.6611 31.849 77.6841 31.8259H84.1108V31.8644H84.1185Z"
        fill="#2F618F" />
    <path
        d="M67.2599 68.2358C67.2599 68.2358 67.2446 68.2204 67.2369 68.2204C67.1677 68.2127 67.1062 68.205 67.037 68.1973C66.6757 68.1665 66.3144 68.1049 65.9608 68.0202C65.5149 67.9124 65.0844 67.7507 64.677 67.5504C64.6231 67.5273 64.577 67.5042 64.5232 67.4734C64.4771 67.4426 64.4233 67.4272 64.3771 67.3964C64.3233 67.3656 64.2618 67.3425 64.2157 67.2963C64.2003 67.2809 64.1619 67.2963 64.1465 67.2578C64.085 67.2578 64.062 67.1885 64.0005 67.1808C63.9851 67.1808 63.9697 67.1577 63.962 67.1423C63.939 67.1192 63.9159 67.0884 63.8775 67.0807C63.8621 67.0807 63.8467 67.0576 63.8313 67.0499C63.8313 67.0499 63.8237 67.0345 63.816 67.0268C63.7468 67.0114 63.716 66.9498 63.6622 66.9112C63.6622 66.9112 63.6622 66.8958 63.6545 66.8958C63.57 66.8727 63.5392 66.8034 63.4777 66.7495C63.4623 66.7341 63.447 66.711 63.4162 66.711C63.4085 66.711 63.3932 66.6956 63.3778 66.6802C63.2702 66.5801 63.1625 66.4723 63.0549 66.3722C63.0318 66.3491 63.0088 66.326 62.9857 66.3029C62.9857 66.3029 62.9703 66.2875 62.9627 66.2798C62.9473 66.2028 62.8781 66.172 62.8397 66.1258C62.8397 66.1258 62.8243 66.1104 62.8243 66.1027C62.8243 66.0564 62.7782 66.0333 62.7551 66.0025C62.7243 65.9717 62.6936 65.9486 62.6782 65.9024C62.6782 65.8793 62.6321 65.8562 62.6244 65.8331C62.6167 65.8023 62.5937 65.7869 62.5783 65.7638C62.5475 65.733 62.5398 65.6868 62.5091 65.656C62.486 65.6329 62.4707 65.5867 62.4553 65.5559C62.4553 65.5482 62.4476 65.5328 62.4399 65.5251C62.4245 65.5097 62.4092 65.502 62.4015 65.4866C62.3861 65.4327 62.3477 65.3865 62.3246 65.3326C62.2862 65.2556 62.2477 65.1708 62.2093 65.0938C62.2093 65.0861 62.1939 65.0784 62.1939 65.0707C62.1939 64.9937 62.1401 64.9321 62.1093 64.8705C62.0632 64.7704 62.0094 64.6626 61.9556 64.5625C61.9172 64.4932 61.8787 64.4239 61.8403 64.3468C61.7788 64.2236 61.7173 64.0927 61.6558 63.9772C61.602 63.8771 61.5559 63.7693 61.502 63.6692C61.4713 63.623 61.4405 63.5691 61.4252 63.5151C61.4098 63.4612 61.3637 63.4227 61.356 63.3688C61.3252 63.3457 61.3252 63.3072 61.3099 63.2841C61.3099 63.2841 61.2945 63.2687 61.2945 63.261C61.2945 63.184 61.2484 63.1224 61.2099 63.0608C61.1715 62.9838 61.133 62.9068 61.0946 62.8221C61.0792 62.7913 61.0639 62.7528 61.0408 62.7219C61.0177 62.6988 61.01 62.6603 60.9947 62.6295C60.9716 62.5833 60.9562 62.5448 60.9332 62.4986C60.6641 61.9519 60.3874 61.4051 60.1183 60.866C59.757 60.1344 59.388 59.4029 59.0267 58.6713C58.6654 57.9474 58.3041 57.2235 57.9504 56.4996C57.5891 55.7757 57.2278 55.0518 56.8665 54.3202C56.5052 53.5887 56.1362 52.8571 55.7749 52.1255C55.4136 51.4016 55.0523 50.6777 54.6986 49.9615C54.3373 49.2376 53.976 48.5138 53.6147 47.7822C53.2534 47.0583 52.8921 46.3344 52.5308 45.6028C52.2925 45.1176 52.0465 44.6325 51.8082 44.155C51.7928 44.1242 51.7697 44.1011 51.7774 44.0626C51.7928 44.0626 51.8082 44.0626 51.8235 44.0626C51.8543 44.0626 51.8773 44.0626 51.9081 44.0626C53.4994 44.0626 55.0984 44.0626 56.6897 44.0626C56.9049 44.0626 57.1125 44.078 57.3277 44.1088C57.7659 44.1627 58.1887 44.2628 58.6116 44.4015C58.8883 44.4939 59.1651 44.6017 59.4341 44.7172C59.5033 44.748 59.5725 44.7788 59.657 44.7942C59.757 44.8173 59.8569 44.8558 59.9645 44.8943C60.0414 44.9174 60.1183 44.9559 60.1875 44.9867C60.2259 45.0021 60.272 45.0175 60.3028 45.056C60.3259 45.0868 60.372 45.056 60.3874 45.1099C60.4412 45.1099 60.4642 45.1793 60.5257 45.1793C60.5257 45.1793 60.5411 45.187 60.5488 45.1947C60.5719 45.2178 60.5795 45.2486 60.618 45.2486C60.641 45.2486 60.6564 45.2871 60.6872 45.2871H60.7025C60.7333 45.3333 60.7871 45.341 60.8179 45.3718C60.8332 45.3872 60.8486 45.4103 60.8794 45.4103C60.8947 45.4103 60.9101 45.4257 60.9178 45.4334C60.9409 45.4642 60.9793 45.4642 61.0024 45.4873C61.0254 45.5104 61.0485 45.5489 61.0792 45.5566C61.1177 45.572 61.1484 45.5951 61.1715 45.6259C61.1715 45.6259 61.1869 45.6413 61.1945 45.6413C61.2253 45.6413 61.2407 45.6644 61.256 45.6798C61.2868 45.7106 61.3099 45.7337 61.3483 45.7491C61.379 45.7568 61.4021 45.7876 61.4252 45.8184C61.4482 45.8415 61.4713 45.8646 61.502 45.88C61.5405 45.8954 61.5635 45.9262 61.5943 45.9571C61.6097 45.9725 61.6174 45.9879 61.6327 45.9956C61.7096 46.0187 61.7557 46.088 61.8095 46.1419C61.8249 46.1573 61.8403 46.1804 61.871 46.1804C61.8787 46.1804 61.8941 46.1881 61.9018 46.2035C61.9863 46.2882 62.0786 46.3806 62.1632 46.4653C62.1785 46.4807 62.1939 46.5038 62.2093 46.5038C62.2631 46.5038 62.2862 46.55 62.3092 46.5808C62.3784 46.6963 62.4783 46.7733 62.5706 46.8658C62.6244 46.9197 62.6782 46.9736 62.732 47.0275C62.7551 47.0506 62.7782 47.0737 62.7935 47.1122C62.7935 47.1199 62.8089 47.1353 62.8166 47.143C62.8704 47.1969 62.9165 47.2431 62.9703 47.297C62.9703 47.297 62.9857 47.3124 62.9857 47.3201C62.9857 47.3663 63.0318 47.3894 63.0626 47.4202C63.0857 47.451 63.1164 47.4818 63.1318 47.5203C63.1548 47.5588 63.1933 47.5896 63.2317 47.6281C63.2317 47.6667 63.2548 47.7052 63.3009 47.7283C63.324 47.7437 63.3317 47.7591 63.3317 47.7822C63.3317 47.8053 63.3624 47.8207 63.3778 47.8438C63.4008 47.8823 63.4239 47.9131 63.447 47.9516C63.47 47.9824 63.4931 48.0209 63.5238 48.0517C63.5469 48.0825 63.5546 48.1287 63.5853 48.1518C63.5853 48.198 63.6161 48.2211 63.6468 48.2442C63.6622 48.2596 63.6622 48.2904 63.6776 48.2981C63.716 48.3289 63.7083 48.3828 63.7468 48.4059C63.7622 48.4444 63.7929 48.4752 63.8006 48.5215C63.8621 48.5985 63.8775 48.6986 63.9313 48.7833C63.9928 48.8757 64.0235 48.9835 64.0927 49.0759C64.1081 49.1452 64.1619 49.2068 64.185 49.2684C64.208 49.3147 64.2311 49.3532 64.2465 49.3994C64.2618 49.4456 64.2926 49.4764 64.308 49.5226C64.3464 49.615 64.4002 49.6997 64.4463 49.7921C64.4463 49.7998 64.4617 49.8075 64.454 49.8152C64.4386 49.8614 64.4771 49.8922 64.4925 49.9307C64.5232 49.9923 64.5463 50.0616 64.5847 50.1155C64.6385 50.2157 64.677 50.3158 64.7385 50.4159C64.7538 50.4467 64.7538 50.4775 64.7846 50.5006C64.8153 50.6007 64.8845 50.6931 64.923 50.7855C64.9383 50.8163 64.9537 50.8394 64.9691 50.8702C64.9691 50.8779 64.9845 50.8933 64.9845 50.901C64.9845 50.9318 64.9998 50.9549 65.0152 50.9857C65.0306 51.0166 65.0613 51.0397 65.069 51.0782C65.069 51.109 65.1075 51.1398 65.1228 51.1706C65.1382 51.2014 65.1382 51.2476 65.1613 51.2707C65.2151 51.34 65.2305 51.4247 65.2843 51.4863C65.2843 51.4863 65.292 51.494 65.292 51.5017C65.3227 51.5941 65.3688 51.6788 65.4226 51.7635C65.4226 51.8251 65.4765 51.8714 65.4918 51.933C65.4995 51.9638 65.5226 51.9869 65.5303 52.0254C65.5303 52.0562 65.561 52.087 65.5764 52.1255C65.5918 52.1563 65.6071 52.1871 65.6148 52.2179C65.6148 52.2487 65.6533 52.2641 65.661 52.3026C65.661 52.3334 65.6994 52.3565 65.7148 52.3873C65.7378 52.4258 65.7455 52.4643 65.7686 52.5028C65.7993 52.5721 65.8378 52.6337 65.8685 52.7031C65.8993 52.7647 65.93 52.8263 65.9608 52.8879C65.9838 52.9341 66.0146 52.9803 66.0376 53.0342C66.0453 53.0573 66.0607 53.0727 66.0684 53.0958C66.0684 53.1266 66.0838 53.1574 66.0991 53.1805C66.1376 53.2421 66.1683 53.3114 66.1991 53.373C66.2298 53.4346 66.2606 53.5039 66.299 53.5656C66.3298 53.6195 66.3451 53.6811 66.3913 53.735C66.3913 53.735 66.3913 53.7504 66.3989 53.7581C66.422 53.812 66.4374 53.8659 66.4681 53.9044C66.4835 53.9275 66.4912 53.9506 66.4912 53.9814C66.4912 54.0122 66.5373 54.0276 66.5296 54.0661C66.5758 54.12 66.5911 54.1893 66.6142 54.2432C66.6296 54.2663 66.6603 54.274 66.6526 54.3125C66.6911 54.3588 66.6834 54.4281 66.7141 54.482C66.7372 54.5128 66.7372 54.5513 66.7603 54.5667C66.791 54.5898 66.7756 54.6283 66.8141 54.6437C66.8294 54.713 66.8833 54.7669 66.8909 54.8362C66.8986 54.8901 66.9371 54.9363 66.9601 54.9902C66.9986 54.9979 66.9755 55.0441 66.9986 55.0595C67.0216 55.0826 67.0216 55.1134 67.037 55.1288C67.0524 55.1519 67.037 55.1827 67.0678 55.2059C67.0908 55.2213 67.0678 55.2675 67.1062 55.2752C67.1062 55.2752 67.1139 55.2906 67.1139 55.2983C67.1139 55.3522 67.1523 55.383 67.1677 55.4215C67.1754 55.4523 67.2061 55.4754 67.2138 55.4985C67.2292 55.5601 67.2753 55.6063 67.2907 55.6679C67.3214 55.6833 67.3214 55.7141 67.3214 55.7372C67.3214 55.768 67.3368 55.8142 67.3522 55.8296C67.3829 55.8604 67.3676 55.9143 67.406 55.9297C67.4137 55.9682 67.4444 55.999 67.4598 56.0299C67.4829 56.0761 67.4906 56.1377 67.5367 56.1762C67.5367 56.1762 67.5367 56.1762 67.5367 56.1839C67.529 56.2609 67.5751 56.3148 67.6059 56.3687C67.6366 56.4303 67.652 56.4919 67.6981 56.5458C67.7212 56.6382 67.7827 56.7075 67.8211 56.7922C67.8442 56.8539 67.8903 56.9078 67.9134 56.9694C67.9134 56.9771 67.9211 56.9848 67.9288 56.9925C67.9441 57.0079 67.9595 57.0156 67.9672 57.031C67.9826 57.0926 68.0287 57.1311 68.0441 57.185C68.0441 57.2004 68.0518 57.2158 68.0671 57.2235C68.1133 57.2466 68.1209 57.3005 68.144 57.339C68.1671 57.3929 68.1978 57.4468 68.2286 57.5007C68.2516 57.5392 68.2747 57.5854 68.2901 57.6239C68.3516 57.8088 68.4438 57.9859 68.5591 58.1399C68.7206 58.3478 68.882 58.5635 69.0588 58.756C69.3586 59.0871 69.6969 59.372 70.0889 59.5877C70.4502 59.7956 70.8346 59.9342 71.242 60.0035C71.3958 60.0343 71.5495 60.0497 71.711 60.0651C71.8801 60.0805 72.0492 60.0805 72.2184 60.0728C72.4259 60.0574 72.6335 60.042 72.8487 60.0112C73.1408 59.965 73.433 59.9034 73.7174 59.8187C73.7328 59.8187 73.7558 59.811 73.7712 59.811C73.7712 59.811 73.7789 59.811 73.7943 59.811C73.7789 59.8572 73.7943 59.9111 73.7558 59.9496C73.7635 60.0035 73.7097 60.042 73.7174 60.0959C73.7174 60.1113 73.702 60.119 73.6943 60.1344C73.6559 60.2038 73.6405 60.2731 73.6175 60.3501C73.6175 60.3655 73.6175 60.3886 73.5944 60.3963C73.5944 60.3963 73.579 60.4117 73.579 60.4194C73.5867 60.4579 73.5483 60.4887 73.5406 60.5195C73.5406 60.558 73.4945 60.5734 73.5022 60.6196C73.5022 60.6504 73.4637 60.6812 73.4714 60.7197C73.433 60.7813 73.4407 60.866 73.3868 60.9199L73.3792 60.9353C73.3868 60.9815 73.3484 61.0123 73.3484 61.0585C73.3484 61.1048 73.31 61.1356 73.31 61.1818C73.31 61.2126 73.2792 61.2434 73.2715 61.2742C73.2638 61.2896 73.2485 61.3127 73.2485 61.3358C73.2485 61.3589 73.2485 61.382 73.2254 61.3897C73.2254 61.3897 73.2177 61.3974 73.2177 61.4051C73.2331 61.459 73.1716 61.4975 73.1793 61.5437C73.1793 61.5514 73.1793 61.5591 73.1716 61.5668C73.1485 61.613 73.1101 61.6592 73.1101 61.7208C73.1101 61.7439 73.0717 61.7593 73.0793 61.7901C73.0793 61.8209 73.0563 61.8363 73.0486 61.8594C73.0486 61.9211 73.0178 61.9673 72.9871 62.0212C72.9871 62.0289 72.9871 62.0443 72.9871 62.0597C72.9871 62.0751 72.9871 62.0982 72.9717 62.1136C72.964 62.1136 72.9563 62.1367 72.9563 62.1444C72.9563 62.1829 72.9333 62.206 72.9256 62.2368C72.9256 62.2753 72.9025 62.2984 72.8949 62.3292C72.8795 62.3677 72.841 62.3908 72.8564 62.437C72.8333 62.4678 72.818 62.4986 72.818 62.5371C72.818 62.5679 72.7795 62.5756 72.7872 62.6141C72.7872 62.6449 72.7642 62.668 72.7565 62.6911C72.7411 62.7297 72.718 62.7605 72.718 62.8067C72.718 62.8375 72.6796 62.8452 72.6873 62.8837C72.6873 62.9068 72.6873 62.9299 72.6565 62.9453V62.9607C72.6719 63.0069 72.6258 63.0377 72.6181 63.0839C72.6181 63.1224 72.595 63.1609 72.5643 63.1994C72.5643 63.2071 72.5566 63.2225 72.5566 63.2379C72.5566 63.261 72.5566 63.2918 72.5335 63.3072C72.5335 63.3072 72.5335 63.3149 72.5335 63.3226C72.5335 63.3611 72.5335 63.3919 72.4951 63.415C72.5028 63.4997 72.4259 63.5536 72.4259 63.6307C72.4259 63.6615 72.3875 63.6692 72.3952 63.7077C72.3952 63.7308 72.3952 63.7539 72.3721 63.777C72.3721 63.8463 72.3337 63.9002 72.3029 63.9541C72.3106 64.008 72.2568 64.0465 72.2645 64.1004C72.2337 64.1312 72.2414 64.1774 72.226 64.2082C72.2107 64.2467 72.1953 64.2852 72.1722 64.316C72.1569 64.3314 72.1415 64.3468 72.1415 64.3622C72.1415 64.3853 72.1261 64.4085 72.1107 64.4316C72.103 64.447 72.103 64.4701 72.103 64.4932C72.103 64.524 72.0646 64.5317 72.0723 64.5702C72.0723 64.601 72.0492 64.6241 72.0415 64.6472C72.0262 64.6857 71.9954 64.7165 72.0031 64.7627C72.0031 64.7935 71.9647 64.8012 71.9724 64.8397C71.9724 64.8628 71.9724 64.8859 71.9416 64.9013V64.9167C71.9493 64.9552 71.9185 64.986 71.9109 65.0168C71.8955 65.0476 71.8724 65.0784 71.8801 65.1246C71.8801 65.1554 71.8417 65.1631 71.8494 65.2016C71.8494 65.2247 71.8417 65.2479 71.8186 65.2633C71.8186 65.2633 71.8186 65.2864 71.8109 65.3018C71.8109 65.3249 71.8109 65.348 71.7879 65.3634C71.7879 65.3634 71.7725 65.3788 71.7725 65.3865C71.7725 65.425 71.7571 65.4558 71.7417 65.4866C71.7264 65.5174 71.711 65.5482 71.711 65.5867C71.711 65.6098 71.6725 65.6252 71.6802 65.6637C71.6802 65.6945 71.6802 65.7099 71.6495 65.7253C71.6495 65.7869 71.611 65.8408 71.588 65.8947C71.5957 65.9563 71.5419 65.9948 71.5495 66.0564C71.5495 66.0718 71.5265 66.0873 71.5188 66.1104C71.488 66.1797 71.4419 66.249 71.4189 66.326C71.4189 66.326 71.4189 66.326 71.4189 66.3337C71.365 66.3645 71.3574 66.4184 71.3189 66.4646C71.2882 66.4954 71.2805 66.5339 71.2574 66.5647C71.2497 66.5801 71.242 66.6032 71.2267 66.6186C71.1959 66.6494 71.1575 66.6725 71.1498 66.7264C71.1498 66.7418 71.1267 66.7572 71.1114 66.7649C71.0806 66.7957 71.0499 66.8188 71.0268 66.8496C71.0191 66.8573 70.996 66.8727 70.996 66.8881C70.996 66.9344 70.9576 66.9575 70.9269 66.9806C70.8961 67.0037 70.8807 67.0345 70.8346 67.0422C70.8192 67.0422 70.8039 67.0653 70.7885 67.0807C70.7424 67.1269 70.6962 67.1731 70.6501 67.2193C70.627 67.2424 70.6117 67.2655 70.5732 67.2732C70.5579 67.2732 70.5348 67.2963 70.5194 67.3117C70.4733 67.3656 70.4195 67.4041 70.358 67.4349C70.0274 67.6505 69.6661 67.8123 69.2817 67.9278C69.0281 68.0048 68.7667 68.0664 68.5053 68.0972C68.3439 68.1203 68.1824 68.1357 68.021 68.1511C68.0056 68.1511 67.9903 68.1588 67.9672 68.1665H67.2676L67.2599 68.2358Z"
        fill="#2F618F" />
</svg>