<svg width="328" height="64" viewBox="0 0 328 64" fill="none" xmlns="http://www.w3.org/2000/svg">
    <path
        d="M146.688 19.4717L133.042 48.9626H130.02L116.374 19.4717H123.499L131.499 38.8296L139.547 19.4717H146.672H146.688Z"
        fill="#2F618F" />
    <path
        d="M157.026 26.6731V48.7236H151.475V31.3891H147.928V26.6731H157.026ZM153.781 15.1858C154.831 15.1858 155.737 15.5522 156.501 16.3011C157.264 17.0499 157.63 17.9262 157.63 18.9458C157.63 19.9655 157.248 20.8099 156.501 21.5747C155.737 22.3395 154.847 22.7059 153.781 22.7059C152.716 22.7059 151.841 22.3235 151.093 21.5747C150.346 20.8099 149.98 19.9496 149.98 18.9458C149.98 17.9421 150.346 17.0499 151.093 16.3011C151.841 15.5522 152.732 15.1858 153.781 15.1858Z"
        fill="#2F618F" />
    <path
        d="M183.634 17.2889V48.7395H178.083V45.0273C177.447 46.2222 176.509 47.2418 175.284 48.1022C174.06 48.9625 172.628 49.3927 170.99 49.3927C169.209 49.3927 167.571 48.9466 166.076 48.0385C164.565 47.1303 163.372 45.8239 162.465 44.1032C161.559 42.3825 161.113 40.3113 161.113 37.8577C161.113 35.4041 161.575 33.3169 162.497 31.5643C163.419 29.8118 164.66 28.4734 166.219 27.5175C167.777 26.5775 169.511 26.0995 171.404 26.0995C172.596 26.0995 173.805 26.3704 175.03 26.928C176.254 27.4856 177.272 28.2185 178.099 29.1585V17.2729H183.65L183.634 17.2889ZM172.517 31.5643C171.356 31.5643 170.354 31.8671 169.527 32.4566C168.7 33.062 168.048 33.8267 167.586 34.7668C167.125 35.7068 166.887 36.7424 166.887 37.8417C166.887 39.4987 167.396 40.9167 168.398 42.0797C169.4 43.2428 170.736 43.8323 172.406 43.8323C173.392 43.8323 174.33 43.5774 175.189 43.0516C176.048 42.5259 176.747 41.793 177.288 40.8529C177.829 39.9129 178.099 38.7658 178.099 37.4275V34.2888C177.304 33.4444 176.461 32.7752 175.539 32.2972C174.616 31.8193 173.614 31.5803 172.549 31.5803L172.517 31.5643Z"
        fill="#2F618F" />
    <path
        d="M198.743 26.0996C200.906 26.0996 202.767 26.5617 204.326 27.5017C205.885 28.4417 207.077 29.7163 207.92 31.3732C208.747 33.0143 209.161 34.9262 209.161 37.0771V39.4351H193.145C193.431 40.9168 194.163 42.1117 195.34 43.0199C196.501 43.928 197.932 44.3741 199.634 44.3741C201.336 44.3741 202.704 44.0555 204.008 43.4182C205.312 42.7809 206.362 42.1276 207.157 41.4585L207.109 46.6206C206.409 47.226 205.36 47.8474 203.976 48.4847C202.592 49.106 201.066 49.4247 199.396 49.4247C197.201 49.4247 195.213 48.9308 193.431 47.943C191.634 46.9552 190.203 45.6009 189.137 43.8802C188.071 42.1595 187.547 40.1998 187.547 37.9852C187.547 35.7706 188.024 33.8587 188.994 32.0902C189.964 30.3217 191.284 28.8718 192.97 27.7884C194.656 26.6891 196.58 26.1474 198.743 26.1474V26.0996ZM198.616 30.9431C197.248 30.9431 196.087 31.3732 195.165 32.2017C194.227 33.0462 193.59 34.1774 193.24 35.6113H203.833C203.722 34.034 203.133 32.8709 202.083 32.0902C201.034 31.3254 199.889 30.9271 198.632 30.9271L198.616 30.9431Z"
        fill="#2F618F" />
    <path
        d="M218.386 26.6732V29.8119C219.054 28.9037 219.96 28.0593 221.121 27.2786C222.266 26.4979 223.586 26.0996 225.081 26.0996C227.324 26.0996 229.201 26.8644 230.728 28.3779C232.239 29.8915 233.002 32.1699 233.002 35.197V48.7396H227.451L227.404 35.9459C227.404 34.4641 227.054 33.3489 226.338 32.6319C225.622 31.9149 224.636 31.5326 223.38 31.5326C222.394 31.5326 221.455 31.8512 220.596 32.4885C219.738 33.1258 219.006 33.8906 218.386 34.7669V48.7396H212.835V26.6891H218.386V26.6732Z"
        fill="#2F618F" />
    <path
        d="M245.344 20.2522V26.673H251.467V31.3093H245.344V40.8369C245.344 41.8247 245.567 42.6054 246.028 43.179C246.473 43.7525 247.157 44.0234 248.064 44.0234C248.843 44.0234 249.527 43.9437 250.099 43.7685C250.672 43.5932 251.197 43.3542 251.69 43.0196V47.4329C251.133 47.9906 250.433 48.4526 249.606 48.835C248.779 49.2174 247.73 49.4085 246.473 49.4085C244.485 49.4085 242.879 48.7712 241.638 47.5126C240.398 46.2539 239.777 44.5014 239.777 42.2868V31.3252H235.801V28.4893C237.201 27.9954 238.489 27.0553 239.682 25.7011C240.859 24.3309 241.797 22.5305 242.497 20.2841H245.344V20.2522Z"
        fill="#2F618F" />
    <path
        d="M263.873 26.6731V48.7236H258.322V31.3891H254.775V26.6731H263.873ZM260.628 15.1858C261.678 15.1858 262.584 15.5522 263.348 16.3011C264.111 17.0499 264.477 17.9262 264.477 18.9458C264.477 19.9655 264.095 20.8099 263.348 21.5747C262.584 22.3395 261.694 22.7059 260.628 22.7059C259.563 22.7059 258.688 22.3235 257.94 21.5747C257.193 20.8099 256.827 19.9496 256.827 18.9458C256.827 17.9421 257.193 17.0499 257.94 16.3011C258.688 15.5522 259.578 15.1858 260.628 15.1858Z"
        fill="#2F618F" />
    <path
        d="M288.986 26.6731V39.8174C288.986 41.7611 288.541 43.4499 287.666 44.8679C286.791 46.2859 285.598 47.3693 284.103 48.1181C282.592 48.8829 280.906 49.2493 278.998 49.2493C277.089 49.2493 275.356 48.867 273.861 48.1181C272.366 47.3693 271.173 46.27 270.314 44.8679C269.455 43.4499 269.026 41.777 269.026 39.8174V26.6731H274.624L274.672 38.8136C274.672 40.5343 275.069 41.8089 275.849 42.6533C276.628 43.4977 277.678 43.912 278.998 43.912C280.318 43.912 281.32 43.4977 282.131 42.6533C282.942 41.8089 283.34 40.5343 283.34 38.8136V26.6731H288.986Z"
        fill="#2F618F" />
    <path
        d="M299.499 26.6732V29.4614C300.167 28.6169 300.978 27.8522 301.932 27.1512C302.887 26.4501 304.095 26.0996 305.59 26.0996C307.086 26.0996 308.533 26.4501 309.789 27.1671C311.046 27.884 312.016 28.9515 312.716 30.3854C313.59 29.1905 314.608 28.1868 315.785 27.3423C316.946 26.5139 318.314 26.0996 319.857 26.0996C321.4 26.0996 322.704 26.4342 323.928 27.1193C325.153 27.8044 326.139 28.8081 326.887 30.1624C327.634 31.5007 328 33.1736 328 35.1811V48.7237H322.449L322.402 35.9299C322.402 34.4482 322.02 33.3329 321.241 32.616C320.461 31.8831 319.459 31.5166 318.203 31.5166C317.233 31.5166 316.406 31.8193 315.706 32.4088C315.006 33.0143 314.354 33.7153 313.734 34.5279V48.7237H308.183L308.135 35.9299C308.135 34.4482 307.754 33.3329 306.974 32.616C306.195 31.8831 305.193 31.5166 303.984 31.5166C303.046 31.5166 302.219 31.8034 301.487 32.3611C300.755 32.9187 300.103 33.5879 299.515 34.3526V48.7237H293.964V26.6732H299.515H299.499Z"
        fill="#2F618F" />
    <path
        d="M62.2761 53.5296C66.7195 52.2436 70.6401 50.0257 74.1917 47.0763C77.6511 44.2038 80.48 40.7923 83.0784 37.1729C84.4852 35.2168 85.6691 33.0914 86.9375 31.0352C87.2373 30.5501 87.2911 30.1265 86.7761 29.6414C85.2309 28.1782 83.8087 26.5841 82.2405 25.1594C80.1572 23.2573 77.9816 21.4553 75.8291 19.6302C73.0232 17.2583 69.9944 15.2176 66.8271 13.3616C63.6138 11.4826 60.2697 9.87312 56.7412 8.64097C53.8276 7.62445 50.8449 6.89286 47.793 6.53092C44.9102 6.18438 42.0197 6.09197 39.0985 6.42311C35.4623 6.83896 31.9491 7.65525 28.5359 8.94131C23.7697 10.7433 19.4339 13.3308 15.3673 16.3804C11.5851 19.222 8.22563 22.5334 4.9354 25.9218C4.28197 26.5995 3.70541 27.3465 3.09041 28.055C2.92129 28.2475 2.71373 28.4169 2.52154 28.6018C2.46773 28.5478 2.40623 28.5016 2.35242 28.4477C2.95973 27.6622 3.5286 26.8382 4.18203 26.0913C6.21152 23.781 8.17951 21.4014 10.3627 19.2451C12.692 16.9426 15.152 14.7632 17.6966 12.7071C19.8644 10.9589 22.163 9.33405 24.5461 7.88628C26.9446 6.43081 29.4584 5.11395 32.0414 4.01272C34.6244 2.91149 37.3227 2.02588 40.044 1.30199C42.1427 0.747529 44.3336 0.516501 46.4938 0.277773C48.3157 0.0775487 50.1607 -0.045666 51.9826 0.0159414C56.6259 0.162259 61.1768 0.986257 65.5894 2.45713C67.5651 3.11171 69.5177 3.8741 71.3704 4.80591C74.1917 6.21518 76.9976 7.67836 79.6575 9.35716C82.1867 10.9512 84.5467 12.8226 86.9221 14.6477C90.7736 17.6125 94.2175 21.0394 97.5693 24.5511C99.5526 26.6303 101.39 28.8482 103.281 31.0121C103.412 31.1662 103.473 31.3741 103.65 31.7206C102.412 31.7206 101.336 31.813 100.283 31.6975C98.5456 31.505 97.3617 32.0133 96.224 33.4841C94.5404 35.6558 92.5186 37.5656 90.5814 39.5294C87.7831 42.3633 84.6851 44.8276 81.3487 47.0146C78.0892 49.1555 74.6606 50.9421 70.9399 52.0819C68.7182 52.7595 66.3966 53.0984 64.1058 53.5681C63.5061 53.6913 62.8911 53.7221 62.2838 53.7915V53.545L62.2761 53.5296Z"
        fill="#2F618F" />
    <path
        d="M0 32.4061C1.53749 32.4061 3.0058 32.3136 4.45104 32.4369C5.36585 32.5216 5.71178 31.9363 6.18072 31.4434C8.55614 28.9329 10.8701 26.3685 13.2916 23.8965C15.8054 21.3244 18.6728 19.1605 21.6709 17.1813C26.0682 14.2858 30.819 12.1911 35.9696 11.0745C37.3534 10.7742 38.7755 10.651 40.1823 10.4584C40.2823 10.443 40.3976 10.5046 40.6897 10.5816C39.4597 11.0437 38.3988 11.4287 37.361 11.8446C34.4782 12.9997 31.8645 14.6246 29.4814 16.5961C27.8132 17.9745 26.1835 19.4377 24.7459 21.0472C22.9932 23.0109 21.3865 25.1287 19.8336 27.2618C18.596 28.9714 17.5505 30.812 16.3897 32.5755C16.036 33.1145 16.0053 33.4919 16.528 33.9924C18.2577 35.6481 19.8644 37.4347 21.6325 39.0442C24.1002 41.2775 26.5832 43.5262 29.2354 45.5207C31.9721 47.5769 34.8472 49.479 37.7992 51.2117C40.1132 52.5671 42.6193 53.6067 45.0869 54.6848C47.7007 55.8245 50.4451 56.5638 53.251 57.0721C56.5412 57.6651 59.8469 57.9038 63.1986 57.6882C66.4427 57.4802 69.5946 56.8873 72.6849 55.917C75.7906 54.9389 78.7964 53.6991 81.5716 51.9741C83.8394 50.5648 86.1226 49.1709 88.2674 47.5923C90.1662 46.1984 91.9804 44.6582 93.6794 43.0256C96.0625 40.7307 98.2918 38.2741 100.59 35.8946C100.683 35.7945 100.844 35.7636 101.09 35.7945C100.736 36.2873 100.406 36.8033 100.029 37.2807C97.4385 40.5074 94.6557 43.557 91.6729 46.4294C88.8824 49.117 85.8997 51.5659 82.7401 53.8146C79.7036 55.9709 76.4902 57.8191 73.1231 59.3978C69.3332 61.169 65.3818 62.4935 61.2614 63.2251C59.5932 63.5255 57.8942 63.6949 56.203 63.8412C54.8346 63.9567 53.4509 64.0183 52.0748 63.9952C48.7154 63.9336 45.3714 63.5948 42.1273 62.663C39.6135 61.9468 37.0843 61.2383 34.6627 60.2911C30.2655 58.5661 26.1297 56.3097 22.3013 53.5374C19.8106 51.7354 17.3352 49.8948 15.0059 47.9003C12.3922 45.667 9.86301 43.3106 7.44146 40.8694C5.16597 38.5745 3.08267 36.0948 0.914807 33.6998C0.622684 33.3764 0.345936 33.0529 0.0691871 32.7218C0.0307498 32.6756 0.0384373 32.5832 0.00768746 32.3983L0 32.4061Z"
        fill="#2F618F" />
    <path
        d="M68.1185 15.8644C68.0878 15.9491 68.057 16.0339 68.0263 16.1186C67.2037 18.3518 66.3812 20.5851 65.5586 22.8184C65.0359 24.243 64.5054 25.6677 63.9827 27.1001C63.9596 27.1617 63.9442 27.2156 63.9289 27.2772C63.9212 27.3003 63.9058 27.3234 63.8904 27.3542C63.8366 27.5005 63.7828 27.6468 63.729 27.7932C63.6752 27.9395 63.6214 28.0781 63.5676 28.2244C63.5291 28.3322 63.4907 28.44 63.4522 28.5478C63.4061 28.6711 63.3523 28.7943 63.3062 28.9252C63.2831 28.9868 63.2754 29.0561 63.2447 29.11C63.1986 29.1947 63.1678 29.2871 63.1371 29.3795C63.0986 29.4951 63.0448 29.6029 63.0064 29.7184C62.9526 29.8801 62.8834 30.0341 62.8372 30.1958C62.8065 30.2883 62.7681 30.3807 62.7373 30.4654C62.6912 30.5963 62.6374 30.7272 62.5912 30.8581C62.5682 30.9197 62.5451 30.9813 62.5221 31.0429C62.499 31.1046 62.4682 31.1585 62.4606 31.2201C62.4375 31.3356 62.3606 31.4357 62.3452 31.5512C62.2991 31.6282 62.2837 31.7206 62.2453 31.813C62.2069 31.9054 62.1684 31.9979 62.1454 32.1057C62.1454 32.1211 62.1223 32.1365 62.1146 32.1519C62.0916 32.2135 62.0685 32.2828 62.0454 32.3444C62.0224 32.406 62.007 32.4676 61.9839 32.5215C61.9455 32.6139 61.8994 32.714 61.884 32.8219C61.884 32.8373 61.8609 32.8527 61.8532 32.8681C61.8148 32.9682 61.7764 33.0683 61.7533 33.1761C61.7533 33.1915 61.7379 33.2069 61.7379 33.2146C61.7226 33.2454 61.7072 33.2762 61.6918 33.307C61.6611 33.4148 61.6226 33.5149 61.5842 33.6151C61.5534 33.6998 61.5304 33.7922 61.4843 33.8769C61.4843 33.9539 61.4151 34.0078 61.4151 34.0848C61.3766 34.1233 61.392 34.1772 61.3536 34.2157C61.3459 34.2927 61.2767 34.362 61.2767 34.4468C61.2383 34.5238 61.2306 34.6162 61.1768 34.6932C61.1537 34.724 61.1537 34.7702 61.1383 34.8087C61.1229 34.8472 61.1229 34.8857 61.1076 34.9242C61.0922 34.955 61.0768 34.9935 61.0691 35.0243C61.0538 35.0705 61.023 35.1167 61.0153 35.1706C60.9615 35.2553 60.9615 35.3632 60.9077 35.4556C60.9 35.471 60.9 35.4864 60.8923 35.5018C60.8693 35.5634 60.8616 35.625 60.8231 35.6712C60.8078 35.6943 60.8231 35.7251 60.8001 35.7482C60.7847 35.7713 60.7847 35.8021 60.7693 35.8252C60.7463 35.8714 60.7386 35.9176 60.7155 35.9638C60.6771 36.0639 60.6309 36.1564 60.6156 36.2565C60.6156 36.2873 60.5925 36.3258 60.5771 36.3566C60.5541 36.4105 60.5541 36.4644 60.5233 36.5106C60.5003 36.5414 60.4695 36.5722 60.4849 36.6184C60.4464 36.6492 60.4541 36.7108 60.4311 36.7493C60.408 36.7801 60.408 36.834 60.3926 36.8725C60.3773 36.9033 60.3619 36.9341 60.3542 36.9727C60.3542 37.0112 60.3311 37.0574 60.3158 37.0959C60.285 37.1575 60.285 37.2345 60.2312 37.2884C60.2389 37.35 60.1774 37.3885 60.1928 37.4501C60.1774 37.4809 60.162 37.504 60.162 37.5425C60.162 37.5733 60.1313 37.5887 60.1236 37.6195C60.1236 37.6426 60.1005 37.6657 60.1005 37.6965C60.1005 37.7273 60.0544 37.7427 60.0698 37.7812C60.0698 37.8044 60.0698 37.8275 60.0467 37.8352C60.0467 37.8352 60.039 37.8506 60.039 37.8583C60.039 37.8968 60.0236 37.9199 60.0083 37.9507C59.9929 37.9892 59.9698 38.02 59.9698 38.0662C59.9698 38.0893 59.9314 38.1047 59.9391 38.1432C59.9391 38.174 59.9314 38.1894 59.9083 38.2048V38.2202C59.916 38.2664 59.8853 38.3049 59.8699 38.3434C59.8622 38.3665 59.8468 38.3819 59.8468 38.4127C59.8468 38.4281 59.8391 38.4435 59.8314 38.4512C59.8314 38.4666 59.8161 38.482 59.8161 38.4974C59.8161 38.5205 59.8161 38.5436 59.793 38.5667C59.7853 38.5667 59.7853 38.5898 59.7853 38.5975C59.7853 38.6283 59.7776 38.6515 59.7546 38.6746C59.7315 38.6977 59.7238 38.7439 59.7161 38.7747C59.7161 38.8132 59.6777 38.8363 59.6854 38.8825C59.6854 38.9056 59.6623 38.9287 59.6546 38.9595C59.6546 38.9826 59.6546 39.0134 59.6239 39.0365C59.6239 39.0365 59.6239 39.0442 59.6239 39.0519C59.6239 39.0981 59.6008 39.1289 59.5855 39.1674C59.5701 39.1982 59.5547 39.2213 59.5547 39.2521C59.5547 39.2752 59.5316 39.2983 59.5239 39.3291C59.5239 39.3522 59.524 39.383 59.5009 39.3984C59.5009 39.3984 59.4932 39.4138 59.4932 39.4215C59.4932 39.4755 59.4624 39.5217 59.4317 39.5602C59.4317 39.5602 59.424 39.5756 59.424 39.5833C59.424 39.6372 59.3779 39.6757 59.3933 39.7219C59.3625 39.7527 59.3625 39.7912 59.3548 39.822C59.3471 39.8528 59.3164 39.8836 59.301 39.9144C59.301 39.9221 59.2933 39.9298 59.2933 39.9375C59.2933 39.976 59.2703 39.9991 59.2626 40.0299C59.2626 40.0607 59.2549 40.0915 59.2318 40.1146C59.2088 40.1377 59.2318 40.1762 59.2088 40.1993C59.1857 40.2224 59.1703 40.2532 59.1703 40.2763C59.1703 40.3303 59.1319 40.3688 59.1319 40.415C59.1319 40.4381 59.1088 40.4612 59.1011 40.4766C59.0934 40.4997 59.1088 40.5305 59.0781 40.5536C59.055 40.569 59.055 40.5998 59.0396 40.6229C59.0396 40.6229 59.032 40.6306 59.032 40.6383C59.0473 40.6922 58.9935 40.7307 58.9935 40.7769C58.9628 40.8462 58.9551 40.9232 58.909 40.9848C58.909 40.9848 58.9013 40.9925 58.9013 41.0002C58.909 41.0541 58.8551 41.0926 58.8628 41.1466C58.8244 41.2082 58.8321 41.2929 58.7783 41.3468C58.7783 41.3468 58.7706 41.3622 58.7783 41.3622C58.786 41.4161 58.7321 41.4546 58.7398 41.5162C58.6937 41.5701 58.7014 41.6471 58.6553 41.7087C58.6476 41.7164 58.6399 41.7395 58.6399 41.7549C58.6399 41.778 58.6399 41.8011 58.6168 41.8165C58.6168 41.8165 58.6091 41.8242 58.6091 41.8319C58.6168 41.8858 58.5707 41.9243 58.5707 41.986C58.5707 42.0091 58.5553 42.0322 58.54 42.0553C58.5246 42.0861 58.5092 42.1092 58.5015 42.1477C58.5015 42.1708 58.4785 42.1939 58.4708 42.2247C58.4708 42.2478 58.4631 42.2709 58.4477 42.294C58.4246 42.3248 58.4323 42.371 58.4093 42.4095C58.3862 42.448 58.3631 42.4788 58.3631 42.5327C58.3631 42.5558 58.3247 42.5712 58.3324 42.602C58.3324 42.6328 58.317 42.6482 58.3016 42.6636C58.3016 42.7252 58.2709 42.7714 58.2401 42.8254C58.2401 42.8793 58.194 42.9178 58.2017 42.9717C58.2017 42.9948 58.1786 43.0025 58.1786 43.0179C58.1633 43.0795 58.1402 43.1411 58.1095 43.195C58.1171 43.2489 58.0633 43.2874 58.071 43.3413C58.0556 43.3721 58.0403 43.4029 58.0326 43.4414C58.0326 43.4722 58.0018 43.503 57.9788 43.5338C57.9788 43.5338 57.9711 43.5415 57.9711 43.5492C57.9788 43.6031 57.9326 43.6339 57.9326 43.6802C57.9326 43.7264 57.8788 43.7572 57.8942 43.8111C57.8711 43.8265 57.8558 43.8573 57.825 43.865C57.679 43.8958 57.5406 43.942 57.3945 43.9728C57.2408 44.0036 57.087 44.0421 56.9333 44.0652C56.8103 44.0883 56.6873 44.096 56.5566 44.1114C56.3952 44.1268 56.2337 44.1345 56.0646 44.1345C55.734 44.1345 55.4035 44.096 55.0729 44.0267C54.9115 43.9882 54.75 43.9651 54.604 43.9035C54.3964 43.8188 54.1965 43.7341 53.989 43.6416C53.8506 43.58 53.7199 43.4876 53.6046 43.3952C53.5662 43.3644 53.52 43.3336 53.4816 43.3028C53.4201 43.2566 53.3663 43.2104 53.3048 43.1565C53.1895 43.0564 52.9358 42.7483 52.8512 42.6174C52.8359 42.5866 52.8128 42.5635 52.7897 42.5327C52.7205 42.448 52.6667 42.3556 52.6206 42.2632C52.5745 42.1554 52.5053 42.0553 52.4515 41.9474C52.4054 41.8704 52.3669 41.8011 52.3362 41.7241C52.3285 41.6933 52.3131 41.6625 52.29 41.6394C52.2132 41.5239 52.1517 41.393 52.0902 41.2621C52.0748 41.2313 52.0671 41.2005 52.0517 41.1697C52.0364 41.1388 52.0056 41.1157 52.0056 41.0849C51.9441 41.0464 51.9518 40.9617 51.8903 40.9155C51.8826 40.8616 51.8519 40.8154 51.8211 40.7692C51.8365 40.7307 51.7904 40.723 51.7827 40.6999C51.7519 40.6306 51.7212 40.5536 51.6827 40.4843C51.6597 40.4304 51.6289 40.3765 51.5982 40.3303C51.5982 40.3303 51.5828 40.3149 51.5828 40.3072C51.5828 40.2763 51.5828 40.2455 51.5521 40.2147C51.529 40.1916 51.529 40.1454 51.5136 40.1146C51.4982 40.0838 51.4752 40.0607 51.4598 40.0299C51.4214 39.9606 51.3906 39.899 51.3599 39.8297C51.3445 39.7989 51.3676 39.7527 51.3214 39.7296C51.3214 39.6911 51.2907 39.668 51.283 39.6372C51.2676 39.5987 51.2369 39.5602 51.2292 39.514C51.2215 39.4755 51.1754 39.4601 51.1831 39.4138C51.1523 39.3984 51.16 39.3676 51.1523 39.3368C51.1523 39.3214 51.1292 39.306 51.1216 39.2829C51.0908 39.2136 51.0601 39.152 51.0293 39.0827C50.9986 39.0211 50.9601 38.9672 50.9371 38.9056C50.9371 38.8979 50.9217 38.8825 50.9217 38.8748C50.9217 38.8209 50.8909 38.7824 50.8679 38.7439C50.8217 38.6515 50.7756 38.559 50.7218 38.4666C50.7064 38.4358 50.7218 38.405 50.6987 38.3819C50.6834 38.3203 50.6372 38.2741 50.6142 38.2125C50.5911 38.1509 50.5604 38.097 50.5296 38.0431C50.5066 38.0123 50.5296 37.9661 50.4912 37.943C50.4989 37.9045 50.4528 37.8891 50.4451 37.8583C50.4451 37.8275 50.4297 37.7889 50.4066 37.7735C50.3759 37.7504 50.3913 37.7042 50.3605 37.6888C50.3528 37.6888 50.3528 37.658 50.3605 37.6426C50.3989 37.5425 50.4374 37.4501 50.4527 37.3423C50.4527 37.3115 50.4835 37.2884 50.4989 37.2653C50.5143 37.2345 50.5143 37.196 50.5296 37.1652C50.545 37.1344 50.5527 37.1113 50.5604 37.0805C50.5757 37.0189 50.6065 36.9496 50.6296 36.8879C50.6603 36.8109 50.6911 36.7262 50.7141 36.6415C50.7141 36.6261 50.7295 36.6107 50.7295 36.5876C50.7449 36.5491 50.7679 36.5106 50.7756 36.4644C50.7833 36.4259 50.8217 36.3951 50.8217 36.3489C50.8217 36.3181 50.8448 36.2873 50.8525 36.2488C50.8525 36.218 50.8832 36.1949 50.8986 36.1641C50.9217 36.1024 50.9371 36.0485 50.9524 35.9869C50.9601 35.9561 50.9909 35.9253 50.9832 35.8868C50.9832 35.856 51.0293 35.8406 51.0216 35.8021C51.0601 35.7559 51.0524 35.6943 51.0831 35.6481C51.0831 35.6019 51.1216 35.5634 51.1216 35.5172C51.1216 35.5018 51.1523 35.4864 51.1523 35.471C51.1523 35.4248 51.1984 35.394 51.1907 35.3478C51.2369 35.2862 51.2292 35.2091 51.2753 35.1552C51.2907 35.1321 51.283 35.1013 51.2984 35.0782C51.3137 35.0551 51.3291 35.032 51.3291 35.0012C51.3291 34.9781 51.3522 34.9627 51.3599 34.9473C51.3599 34.8703 51.4291 34.8164 51.4291 34.7394C51.4675 34.6932 51.4521 34.6316 51.4906 34.5854C51.4906 34.5084 51.5521 34.4545 51.5597 34.3774C51.5674 34.3312 51.5905 34.285 51.6059 34.2388C51.6289 34.1772 51.652 34.1079 51.6904 34.0463C51.6981 34.0309 51.6904 34.0001 51.6981 33.9847C51.7135 33.9231 51.7442 33.8615 51.7596 33.7999C51.7596 33.7845 51.7827 33.7768 51.7827 33.7614C51.8057 33.7152 51.8288 33.6613 51.8442 33.6074C51.8596 33.5534 51.8903 33.5072 51.8903 33.4456C51.8903 33.4071 51.9364 33.3917 51.9364 33.3532C51.9364 33.3455 51.9595 33.3301 51.9595 33.3224C51.9595 33.2762 51.9902 33.2454 51.9979 33.1992C51.9979 33.1607 52.021 33.1222 52.021 33.0837C52.021 33.0529 52.0517 33.0529 52.0594 33.0298C52.0594 33.0144 52.0748 32.999 52.0825 32.9759C52.0825 32.9682 52.0979 32.9528 52.0979 32.9451C52.0979 32.9066 52.1209 32.8835 52.1286 32.845C52.1363 32.8142 52.1363 32.7834 52.1671 32.7603C52.1671 32.6832 52.2286 32.6216 52.2362 32.5446C52.2747 32.5061 52.2747 32.4599 52.2824 32.4137C52.3054 32.3367 52.3439 32.2674 52.3592 32.1904C52.3669 32.1519 52.4131 32.1211 52.3977 32.0826C52.4361 32.0364 52.4284 31.9748 52.4592 31.9286C52.4745 31.8977 52.5053 31.8746 52.5053 31.8284C52.5053 31.7899 52.5437 31.7668 52.536 31.7206C52.5745 31.6821 52.5514 31.6128 52.5975 31.582C52.6206 31.5127 52.6437 31.4511 52.6667 31.3818C52.6667 31.3664 52.6667 31.3356 52.6898 31.3356C52.7206 31.3125 52.7129 31.274 52.7436 31.2509C52.7436 31.197 52.782 31.1585 52.7897 31.1046C52.7897 31.066 52.8282 31.0429 52.8205 30.9967C52.8205 30.9659 52.8589 30.9428 52.8666 30.9043C52.8666 30.8812 52.8897 30.8581 52.8897 30.835C52.8897 30.8119 52.9204 30.7965 52.9204 30.7811C52.9204 30.7272 52.9742 30.6887 52.9589 30.6348C52.9589 30.6271 52.9589 30.6194 52.9589 30.6117C52.9819 30.5655 53.0127 30.5193 53.0127 30.4654C53.0127 30.4346 53.0588 30.4269 53.0511 30.3961C53.0511 30.373 53.0588 30.3499 53.0742 30.3268C53.0742 30.3191 53.0742 30.3037 53.0742 30.2883C53.0742 30.2652 53.0742 30.242 53.0972 30.2266C53.0972 30.2266 53.1049 30.2112 53.1126 30.2035C53.1203 30.165 53.128 30.1265 53.1434 30.0957C53.1587 30.0649 53.1818 30.0418 53.1818 30.0033C53.1818 29.9725 53.2202 29.9571 53.2125 29.9186C53.2049 29.8878 53.2433 29.8724 53.251 29.8493C53.2664 29.78 53.3048 29.7184 53.3125 29.6491C53.3125 29.6106 53.3509 29.5875 53.3509 29.549C53.3509 29.5182 53.3894 29.4874 53.397 29.4566C53.4047 29.4104 53.4278 29.3641 53.4432 29.3179C53.4432 29.2948 53.4432 29.264 53.4739 29.2486C53.4739 29.2486 53.4739 29.2486 53.4739 29.2409C53.4739 29.1947 53.497 29.1639 53.5124 29.1254C53.5431 29.0484 53.5739 28.9637 53.6046 28.8867C53.62 28.8559 53.6046 28.8174 53.6354 28.7943C53.6584 28.7789 53.6507 28.7327 53.6738 28.7096C53.6738 28.6634 53.7045 28.6326 53.7122 28.5864C53.7276 28.5478 53.7276 28.5093 53.743 28.4708C53.743 28.4477 53.766 28.4246 53.7737 28.4092C53.7891 28.3784 53.8045 28.3553 53.8045 28.3245C53.8045 28.2937 53.8275 28.2706 53.8352 28.2475C53.8429 28.209 53.866 28.1705 53.8737 28.1243C53.8737 28.1012 53.8967 28.0781 53.8967 28.055C53.8967 28.0088 53.9429 27.9857 53.9429 27.9318C53.9429 27.8933 53.9813 27.8625 53.9813 27.8163C53.9813 27.7932 54.012 27.7701 54.0044 27.7393C54.0044 27.7084 54.0351 27.693 54.0428 27.6699C54.0428 27.6314 54.0812 27.6006 54.0735 27.5621C54.112 27.5005 54.1197 27.4312 54.1504 27.3696C54.1812 27.3234 54.1965 27.2695 54.2042 27.2156C54.2042 27.2002 54.2119 27.1848 54.2196 27.1771C54.2196 27.1694 54.235 27.1617 54.235 27.154C54.2273 27.1001 54.2734 27.0616 54.2811 27.0154C54.2888 26.9846 54.2965 26.9538 54.3119 26.9307C54.3272 26.8999 54.3349 26.8767 54.3426 26.8459C54.3503 26.8074 54.3657 26.7766 54.3734 26.7381C54.381 26.7073 54.4041 26.6842 54.4195 26.6457C54.4349 26.5995 54.4656 26.5533 54.4656 26.5071C54.4656 26.4609 54.504 26.4301 54.504 26.3839C54.504 26.3454 54.5425 26.3146 54.5502 26.2761C54.5732 26.1914 54.627 26.1067 54.6424 26.0142C54.6424 25.9911 54.6655 25.9757 54.6732 25.9603C54.6732 25.9141 54.7193 25.8756 54.7116 25.8294C54.7577 25.7986 54.727 25.737 54.7731 25.7062C54.7731 25.6215 54.8423 25.5599 54.8423 25.4829C54.8807 25.4444 54.8653 25.3905 54.9038 25.352C54.9038 25.2904 54.9576 25.2365 54.9653 25.1825C54.973 25.1363 55.0037 25.0978 55.0114 25.0516C55.0114 25.0054 55.0498 24.9746 55.0498 24.9284C55.0498 24.913 55.0806 24.8899 55.0806 24.8745C55.0806 24.836 55.1267 24.8129 55.119 24.7744C55.119 24.7359 55.1498 24.7128 55.1498 24.6666C55.1498 24.6358 55.1728 24.5973 55.1805 24.5588C55.1805 24.528 55.2113 24.5049 55.2267 24.4741C55.2343 24.451 55.2497 24.4356 55.2497 24.4048V24.3894C55.2959 24.3585 55.2728 24.2969 55.3035 24.2507C55.2959 24.1891 55.342 24.1583 55.3573 24.1121C55.3573 24.089 55.3727 24.0736 55.3804 24.0505C55.3804 24.0274 55.3804 24.012 55.4035 24.0043C55.4035 24.0043 55.4188 23.9889 55.4188 23.9812C55.4112 23.9273 55.465 23.8888 55.4573 23.8426C55.4573 23.8426 55.465 23.8272 55.465 23.8195C55.488 23.7733 55.5188 23.7348 55.5188 23.6732C55.5188 23.6501 55.5649 23.6347 55.5495 23.6039C55.5495 23.5731 55.5649 23.5577 55.5803 23.5345C55.5957 23.5037 55.588 23.4729 55.6033 23.4344C55.6187 23.3959 55.6495 23.3574 55.6495 23.3035C55.6495 23.2804 55.6879 23.265 55.6802 23.2342C55.6802 23.2034 55.6879 23.188 55.711 23.1726C55.711 23.0879 55.7878 23.034 55.7802 22.9493C55.8263 22.9108 55.7955 22.8492 55.8417 22.8107C55.8417 22.8107 55.8417 22.7876 55.8417 22.7722C55.8417 22.7645 55.8417 22.7491 55.8417 22.7414C55.8801 22.6951 55.8955 22.6412 55.9032 22.5796C55.9339 22.5488 55.9262 22.5103 55.9416 22.4795C55.9493 22.4487 55.9723 22.4256 55.98 22.3871C55.98 22.3563 56.0185 22.3332 56.0185 22.3024C56.0569 22.2639 56.0415 22.21 56.0723 22.1638C56.0877 22.1407 56.0723 22.1099 56.103 22.0945C56.103 22.0945 56.103 22.0868 56.103 22.0791C56.103 22.0175 56.1415 21.979 56.1568 21.9251C56.1568 21.9097 56.1645 21.8943 56.1722 21.8789C56.1722 21.8634 56.1722 21.848 56.1876 21.8326C56.2183 21.7941 56.2183 21.7479 56.2337 21.7017C56.2491 21.6786 56.2337 21.6401 56.2645 21.617C56.2645 21.617 56.2645 21.6093 56.2645 21.6016C56.2645 21.54 56.2952 21.5015 56.326 21.4476C56.3413 21.4245 56.3337 21.3937 56.349 21.3706C56.3721 21.3398 56.349 21.3013 56.3721 21.2782C56.3952 21.2551 56.3952 21.2243 56.4028 21.1935C56.4028 21.1627 56.449 21.1396 56.4413 21.1011C56.4797 21.0626 56.4643 21.0086 56.4951 20.9701C56.5105 20.947 56.4951 20.9162 56.5182 20.8931C56.5412 20.8777 56.5182 20.8315 56.5566 20.8238C56.5566 20.8238 56.5643 20.8084 56.5643 20.8007C56.5643 20.7699 56.5797 20.7468 56.595 20.716C56.6104 20.6929 56.595 20.6544 56.6258 20.6313C56.6258 20.5928 56.6258 20.5543 56.6565 20.5158C56.6488 20.4773 56.695 20.4696 56.695 20.4388C56.695 20.408 56.695 20.3849 56.718 20.3618C56.7334 20.3387 56.718 20.3002 56.7411 20.2771C56.7642 20.254 56.7795 20.2232 56.7795 20.2001C56.7795 20.1461 56.8103 20.1076 56.818 20.0614C56.818 20.0229 56.8487 19.9921 56.8641 19.9536C56.8641 19.9459 56.8795 19.9305 56.8795 19.9228C56.8795 19.8689 56.9102 19.8304 56.9333 19.7842C56.9333 19.7765 56.9487 19.7611 56.9487 19.7534C56.9487 19.7226 56.964 19.6918 56.9794 19.6687C57.0102 19.5994 57.0486 19.5301 57.0563 19.4531C57.0563 19.4377 57.087 19.4223 57.087 19.4069C57.087 19.3607 57.1331 19.3298 57.1255 19.2836C57.1255 19.2759 57.1332 19.2605 57.1408 19.2528C57.1793 19.2066 57.1793 19.145 57.2177 19.1065C57.2331 19.0218 57.2869 18.9602 57.31 18.8832C57.3253 18.8293 57.3484 18.7754 57.3791 18.7292C57.3791 18.7292 57.3791 18.7215 57.3791 18.7138C57.3791 18.6907 57.3792 18.6676 57.3868 18.6368C57.4176 18.6291 57.4099 18.5983 57.4253 18.5752C57.433 18.5521 57.4483 18.529 57.456 18.5058C57.4868 18.4365 57.5252 18.3672 57.556 18.2979C57.579 18.2517 57.6098 18.2132 57.6098 18.1593V18.1439C57.6482 18.1285 57.6251 18.09 57.6482 18.0669C57.679 18.0361 57.6943 17.9976 57.7097 17.9591C57.7174 17.9283 57.7251 17.8821 57.7635 17.8667C57.7635 17.8282 57.7943 17.8051 57.8096 17.782C57.825 17.7589 57.8327 17.7358 57.8481 17.7127C57.8865 17.6433 57.9326 17.574 57.9634 17.5047C57.9865 17.4662 58.0095 17.4277 58.0403 17.3892C58.048 17.3738 58.0556 17.3661 58.0633 17.3507C58.0633 17.343 58.0633 17.3276 58.071 17.3276C58.1325 17.2968 58.1325 17.2275 58.1786 17.189C58.2017 17.1659 58.1863 17.1274 58.2248 17.112C58.2478 17.1043 58.2632 17.0735 58.2863 17.0504C58.3016 17.035 58.317 17.0196 58.3247 17.0042C58.3247 16.958 58.3708 16.9426 58.3939 16.9118C58.4477 16.8501 58.5092 16.7962 58.563 16.7346C58.9474 16.3496 59.4086 16.1186 59.9391 16.003C60.1389 15.9568 60.3465 15.926 60.5541 15.9029C60.7078 15.8875 60.8616 15.8798 61.0153 15.8644C61.2152 15.849 61.4074 15.849 61.6073 15.8413C61.638 15.8413 61.6611 15.849 61.6841 15.8259H68.1108V15.8644H68.1185Z"
        fill="#2F618F" />
    <path
        d="M51.2599 52.2359C51.2599 52.2359 51.2446 52.2205 51.2369 52.2205C51.1677 52.2128 51.1062 52.2051 51.037 52.1974C50.6757 52.1666 50.3144 52.105 49.9608 52.0203C49.5149 51.9125 49.0844 51.7508 48.677 51.5506C48.6231 51.5274 48.577 51.5043 48.5232 51.4735C48.4771 51.4427 48.4233 51.4273 48.3771 51.3965C48.3233 51.3657 48.2618 51.3426 48.2157 51.2964C48.2003 51.281 48.1619 51.2964 48.1465 51.2579C48.085 51.2579 48.062 51.1886 48.0005 51.1809C47.9851 51.1809 47.9697 51.1578 47.962 51.1424C47.939 51.1193 47.9159 51.0885 47.8775 51.0808C47.8621 51.0808 47.8467 51.0577 47.8313 51.05C47.8313 51.05 47.8237 51.0346 47.816 51.0269C47.7468 51.0115 47.716 50.9499 47.6622 50.9114C47.6622 50.9114 47.6622 50.896 47.6545 50.896C47.57 50.8729 47.5392 50.8036 47.4777 50.7497C47.4623 50.7343 47.447 50.7111 47.4162 50.7111C47.4085 50.7111 47.3932 50.6957 47.3778 50.6803C47.2702 50.5802 47.1625 50.4724 47.0549 50.3723C47.0318 50.3492 47.0088 50.3261 46.9857 50.303C46.9857 50.303 46.9703 50.2876 46.9627 50.2799C46.9473 50.2029 46.8781 50.1721 46.8397 50.1259C46.8397 50.1259 46.8243 50.1105 46.8243 50.1028C46.8243 50.0566 46.7782 50.0335 46.7551 50.0027C46.7243 49.9719 46.6936 49.9488 46.6782 49.9026C46.6782 49.8795 46.6321 49.8563 46.6244 49.8332C46.6167 49.8024 46.5937 49.787 46.5783 49.7639C46.5475 49.7331 46.5398 49.6869 46.5091 49.6561C46.486 49.633 46.4707 49.5868 46.4553 49.556C46.4553 49.5483 46.4476 49.5329 46.4399 49.5252C46.4245 49.5098 46.4092 49.5021 46.4015 49.4867C46.3861 49.4328 46.3477 49.3866 46.3246 49.3327C46.2862 49.2557 46.2477 49.171 46.2093 49.094C46.2093 49.0863 46.1939 49.0786 46.1939 49.0709C46.1939 48.9938 46.1401 48.9322 46.1093 48.8706C46.0632 48.7705 46.0094 48.6627 45.9556 48.5626C45.9172 48.4933 45.8787 48.424 45.8403 48.347C45.7788 48.2237 45.7173 48.0928 45.6558 47.9773C45.602 47.8772 45.5559 47.7694 45.502 47.6693C45.4713 47.6231 45.4405 47.5692 45.4252 47.5153C45.4098 47.4614 45.3637 47.4229 45.356 47.3689C45.3252 47.3458 45.3252 47.3073 45.3099 47.2842C45.3099 47.2842 45.2945 47.2688 45.2945 47.2611C45.2945 47.1841 45.2484 47.1225 45.2099 47.0609C45.1715 46.9839 45.133 46.9069 45.0946 46.8222C45.0792 46.7914 45.0639 46.7529 45.0408 46.7221C45.0177 46.699 45.01 46.6605 44.9947 46.6297C44.9716 46.5835 44.9562 46.545 44.9332 46.4987C44.6641 45.952 44.3874 45.4052 44.1183 44.8661C43.757 44.1346 43.388 43.403 43.0267 42.6714C42.6654 41.9475 42.3041 41.2236 41.9504 40.4997C41.5891 39.7758 41.2278 39.052 40.8665 38.3204C40.5052 37.5888 40.1362 36.8572 39.7749 36.1256C39.4136 35.4017 39.0523 34.6778 38.6986 33.9616C38.3373 33.2378 37.976 32.5139 37.6147 31.7823C37.2534 31.0584 36.8921 30.3345 36.5308 29.6029C36.2925 29.1178 36.0465 28.6326 35.8082 28.1552C35.7928 28.1244 35.7697 28.1012 35.7774 28.0627C35.7928 28.0627 35.8082 28.0627 35.8235 28.0627C35.8543 28.0627 35.8773 28.0627 35.9081 28.0627C37.4994 28.0627 39.0984 28.0627 40.6897 28.0627C40.9049 28.0627 41.1125 28.0781 41.3277 28.109C41.7659 28.1629 42.1887 28.263 42.6116 28.4016C42.8883 28.494 43.1651 28.6018 43.4341 28.7173C43.5033 28.7481 43.5725 28.7789 43.657 28.7943C43.757 28.8174 43.8569 28.8559 43.9645 28.8944C44.0414 28.9175 44.1183 28.9561 44.1875 28.9869C44.2259 29.0023 44.272 29.0177 44.3028 29.0562C44.3259 29.087 44.372 29.0562 44.3874 29.1101C44.4412 29.1101 44.4642 29.1794 44.5257 29.1794C44.5257 29.1794 44.5411 29.1871 44.5488 29.1948C44.5719 29.2179 44.5795 29.2487 44.618 29.2487C44.641 29.2487 44.6564 29.2872 44.6872 29.2872H44.7025C44.7333 29.3334 44.7871 29.3411 44.8179 29.3719C44.8332 29.3873 44.8486 29.4104 44.8794 29.4104C44.8947 29.4104 44.9101 29.4258 44.9178 29.4335C44.9409 29.4643 44.9793 29.4643 45.0024 29.4874C45.0254 29.5105 45.0485 29.549 45.0792 29.5567C45.1177 29.5721 45.1484 29.5952 45.1715 29.626C45.1715 29.626 45.1869 29.6414 45.1945 29.6414C45.2253 29.6414 45.2407 29.6645 45.256 29.6799C45.2868 29.7107 45.3099 29.7338 45.3483 29.7492C45.379 29.7569 45.4021 29.7878 45.4252 29.8186C45.4482 29.8417 45.4713 29.8648 45.502 29.8802C45.5405 29.8956 45.5635 29.9264 45.5943 29.9572C45.6097 29.9726 45.6174 29.988 45.6327 29.9957C45.7096 30.0188 45.7557 30.0881 45.8095 30.142C45.8249 30.1574 45.8403 30.1805 45.871 30.1805C45.8787 30.1805 45.8941 30.1882 45.9018 30.2036C45.9863 30.2883 46.0786 30.3807 46.1632 30.4654C46.1785 30.4808 46.1939 30.5039 46.2093 30.5039C46.2631 30.5039 46.2862 30.5501 46.3092 30.5809C46.3784 30.6965 46.4783 30.7735 46.5706 30.8659C46.6244 30.9198 46.6782 30.9737 46.732 31.0276C46.7551 31.0507 46.7782 31.0738 46.7935 31.1123C46.7935 31.12 46.8089 31.1354 46.8166 31.1431C46.8704 31.197 46.9165 31.2432 46.9703 31.2971C46.9703 31.2971 46.9857 31.3125 46.9857 31.3202C46.9857 31.3664 47.0318 31.3895 47.0626 31.4203C47.0857 31.4511 47.1164 31.482 47.1318 31.5205C47.1548 31.559 47.1933 31.5898 47.2317 31.6283C47.2317 31.6668 47.2548 31.7053 47.3009 31.7284C47.324 31.7438 47.3317 31.7592 47.3317 31.7823C47.3317 31.8054 47.3624 31.8208 47.3778 31.8439C47.4008 31.8824 47.4239 31.9132 47.447 31.9517C47.47 31.9825 47.4931 32.021 47.5238 32.0518C47.5469 32.0826 47.5546 32.1288 47.5853 32.1519C47.5853 32.1981 47.6161 32.2212 47.6468 32.2443C47.6622 32.2597 47.6622 32.2905 47.6776 32.2982C47.716 32.3291 47.7083 32.383 47.7468 32.4061C47.7622 32.4446 47.7929 32.4754 47.8006 32.5216C47.8621 32.5986 47.8775 32.6987 47.9313 32.7834C47.9928 32.8758 48.0235 32.9836 48.0927 33.076C48.1081 33.1454 48.1619 33.207 48.185 33.2686C48.208 33.3148 48.2311 33.3533 48.2465 33.3995C48.2618 33.4457 48.2926 33.4765 48.308 33.5227C48.3464 33.6151 48.4002 33.6998 48.4463 33.7922C48.4463 33.7999 48.4617 33.8076 48.454 33.8153C48.4386 33.8615 48.4771 33.8923 48.4925 33.9308C48.5232 33.9925 48.5463 34.0618 48.5847 34.1157C48.6385 34.2158 48.677 34.3159 48.7385 34.416C48.7538 34.4468 48.7538 34.4776 48.7846 34.5007C48.8153 34.6008 48.8845 34.6932 48.923 34.7856C48.9383 34.8164 48.9537 34.8396 48.9691 34.8704C48.9691 34.8781 48.9845 34.8935 48.9845 34.9012C48.9845 34.932 48.9998 34.9551 49.0152 34.9859C49.0306 35.0167 49.0613 35.0398 49.069 35.0783C49.069 35.1091 49.1075 35.1399 49.1228 35.1707C49.1382 35.2015 49.1382 35.2477 49.1613 35.2708C49.2151 35.3401 49.2305 35.4248 49.2843 35.4864C49.2843 35.4864 49.292 35.4941 49.292 35.5018C49.3227 35.5942 49.3688 35.679 49.4226 35.7637C49.4226 35.8253 49.4765 35.8715 49.4918 35.9331C49.4995 35.9639 49.5226 35.987 49.5303 36.0255C49.5303 36.0563 49.561 36.0871 49.5764 36.1256C49.5918 36.1564 49.6071 36.1872 49.6148 36.218C49.6148 36.2488 49.6533 36.2642 49.661 36.3027C49.661 36.3335 49.6994 36.3566 49.7148 36.3874C49.7378 36.4259 49.7455 36.4644 49.7686 36.503C49.7993 36.5723 49.8378 36.6339 49.8685 36.7032C49.8993 36.7648 49.93 36.8264 49.9608 36.888C49.9838 36.9342 50.0146 36.9804 50.0376 37.0343C50.0453 37.0574 50.0607 37.0728 50.0684 37.0959C50.0684 37.1267 50.0838 37.1575 50.0991 37.1806C50.1376 37.2422 50.1683 37.3115 50.1991 37.3732C50.2298 37.4348 50.2606 37.5041 50.299 37.5657C50.3298 37.6196 50.3451 37.6812 50.3913 37.7351C50.3913 37.7351 50.3913 37.7505 50.3989 37.7582C50.422 37.8121 50.4374 37.866 50.4681 37.9045C50.4835 37.9276 50.4912 37.9507 50.4912 37.9815C50.4912 38.0123 50.5373 38.0277 50.5296 38.0662C50.5758 38.1201 50.5911 38.1895 50.6142 38.2434C50.6296 38.2665 50.6603 38.2742 50.6526 38.3127C50.6911 38.3589 50.6834 38.4282 50.7141 38.4821C50.7372 38.5129 50.7372 38.5514 50.7603 38.5668C50.791 38.5899 50.7756 38.6284 50.8141 38.6438C50.8294 38.7131 50.8833 38.767 50.8909 38.8363C50.8986 38.8902 50.9371 38.9364 50.9601 38.9903C50.9986 38.9981 50.9755 39.0443 50.9986 39.0597C51.0216 39.0828 51.0216 39.1136 51.037 39.129C51.0524 39.1521 51.037 39.1829 51.0678 39.206C51.0908 39.2214 51.0678 39.2676 51.1062 39.2753C51.1062 39.2753 51.1139 39.2907 51.1139 39.2984C51.1139 39.3523 51.1523 39.3831 51.1677 39.4216C51.1754 39.4524 51.2061 39.4755 51.2138 39.4986C51.2292 39.5602 51.2753 39.6064 51.2907 39.668C51.3214 39.6834 51.3214 39.7142 51.3214 39.7373C51.3214 39.7681 51.3368 39.8143 51.3522 39.8298C51.3829 39.8606 51.3676 39.9145 51.406 39.9299C51.4137 39.9684 51.4444 39.9992 51.4598 40.03C51.4829 40.0762 51.4906 40.1378 51.5367 40.1763C51.5367 40.1763 51.5367 40.1763 51.5367 40.184C51.529 40.261 51.5751 40.3149 51.6059 40.3688C51.6366 40.4304 51.652 40.492 51.6981 40.5459C51.7212 40.6383 51.7827 40.7077 51.8211 40.7924C51.8442 40.854 51.8903 40.9079 51.9134 40.9695C51.9134 40.9772 51.9211 40.9849 51.9288 40.9926C51.9441 41.008 51.9595 41.0157 51.9672 41.0311C51.9826 41.0927 52.0287 41.1312 52.0441 41.1851C52.0441 41.2005 52.0518 41.2159 52.0671 41.2236C52.1133 41.2467 52.1209 41.3006 52.144 41.3391C52.1671 41.393 52.1978 41.4469 52.2286 41.5008C52.2516 41.5394 52.2747 41.5856 52.2901 41.6241C52.3516 41.8089 52.4438 41.986 52.5591 42.14C52.7206 42.348 52.882 42.5636 53.0588 42.7561C53.3586 43.0872 53.6969 43.3722 54.0889 43.5878C54.4502 43.7957 54.8346 43.9343 55.242 44.0036C55.3958 44.0345 55.5495 44.0499 55.711 44.0653C55.8801 44.0807 56.0492 44.0807 56.2184 44.073C56.4259 44.0576 56.6335 44.0422 56.8487 44.0113C57.1408 43.9651 57.433 43.9035 57.7174 43.8188C57.7328 43.8188 57.7558 43.8111 57.7712 43.8111C57.7712 43.8111 57.7789 43.8111 57.7943 43.8111C57.7789 43.8573 57.7943 43.9112 57.7558 43.9497C57.7635 44.0036 57.7097 44.0422 57.7174 44.0961C57.7174 44.1115 57.702 44.1192 57.6943 44.1346C57.6559 44.2039 57.6405 44.2732 57.6175 44.3502C57.6175 44.3656 57.6175 44.3887 57.5944 44.3964C57.5944 44.3964 57.579 44.4118 57.579 44.4195C57.5867 44.458 57.5483 44.4888 57.5406 44.5196C57.5406 44.5581 57.4945 44.5735 57.5022 44.6197C57.5022 44.6505 57.4637 44.6813 57.4714 44.7198C57.433 44.7814 57.4407 44.8662 57.3868 44.9201L57.3792 44.9355C57.3868 44.9817 57.3484 45.0125 57.3484 45.0587C57.3484 45.1049 57.31 45.1357 57.31 45.1819C57.31 45.2127 57.2792 45.2435 57.2715 45.2743C57.2638 45.2897 57.2485 45.3128 57.2485 45.3359C57.2485 45.359 57.2485 45.3821 57.2254 45.3898C57.2254 45.3898 57.2177 45.3975 57.2177 45.4052C57.2331 45.4591 57.1716 45.4976 57.1793 45.5438C57.1793 45.5515 57.1793 45.5592 57.1716 45.5669C57.1485 45.6131 57.1101 45.6593 57.1101 45.721C57.1101 45.7441 57.0717 45.7595 57.0793 45.7903C57.0793 45.8211 57.0563 45.8365 57.0486 45.8596C57.0486 45.9212 57.0178 45.9674 56.9871 46.0213C56.9871 46.029 56.9871 46.0444 56.9871 46.0598C56.9871 46.0752 56.9871 46.0983 56.9717 46.1137C56.964 46.1137 56.9563 46.1368 56.9563 46.1445C56.9563 46.183 56.9333 46.2061 56.9256 46.2369C56.9256 46.2754 56.9025 46.2985 56.8949 46.3293C56.8795 46.3678 56.841 46.3909 56.8564 46.4371C56.8333 46.4679 56.818 46.4987 56.818 46.5373C56.818 46.5681 56.7795 46.5758 56.7872 46.6143C56.7872 46.6451 56.7642 46.6682 56.7565 46.6913C56.7411 46.7298 56.718 46.7606 56.718 46.8068C56.718 46.8376 56.6796 46.8453 56.6873 46.8838C56.6873 46.9069 56.6873 46.93 56.6565 46.9454V46.9608C56.6719 47.007 56.6258 47.0378 56.6181 47.084C56.6181 47.1225 56.595 47.161 56.5643 47.1995C56.5643 47.2072 56.5566 47.2226 56.5566 47.238C56.5566 47.2611 56.5566 47.2919 56.5335 47.3073C56.5335 47.3073 56.5335 47.315 56.5335 47.3227C56.5335 47.3612 56.5335 47.3921 56.4951 47.4152C56.5028 47.4999 56.4259 47.5538 56.4259 47.6308C56.4259 47.6616 56.3875 47.6693 56.3952 47.7078C56.3952 47.7309 56.3952 47.754 56.3721 47.7771C56.3721 47.8464 56.3337 47.9003 56.3029 47.9542C56.3106 48.0081 56.2568 48.0466 56.2645 48.1005C56.2337 48.1313 56.2414 48.1775 56.226 48.2083C56.2107 48.2469 56.1953 48.2854 56.1722 48.3162C56.1569 48.3316 56.1415 48.347 56.1415 48.3624C56.1415 48.3855 56.1261 48.4086 56.1107 48.4317C56.103 48.4471 56.103 48.4702 56.103 48.4933C56.103 48.5241 56.0646 48.5318 56.0723 48.5703C56.0723 48.6011 56.0492 48.6242 56.0415 48.6473C56.0262 48.6858 55.9954 48.7166 56.0031 48.7628C56.0031 48.7936 55.9647 48.8013 55.9724 48.8398C55.9724 48.8629 55.9724 48.886 55.9416 48.9014V48.9168C55.9493 48.9553 55.9185 48.9861 55.9109 49.0169C55.8955 49.0478 55.8724 49.0786 55.8801 49.1248C55.8801 49.1556 55.8417 49.1633 55.8494 49.2018C55.8494 49.2249 55.8417 49.248 55.8186 49.2634C55.8186 49.2634 55.8186 49.2865 55.8109 49.3019C55.8109 49.325 55.8109 49.3481 55.7879 49.3635C55.7879 49.3635 55.7725 49.3789 55.7725 49.3866C55.7725 49.4251 55.7571 49.4559 55.7417 49.4867C55.7264 49.5175 55.711 49.5483 55.711 49.5868C55.711 49.6099 55.6725 49.6253 55.6802 49.6638C55.6802 49.6946 55.6802 49.71 55.6495 49.7254C55.6495 49.787 55.611 49.8409 55.588 49.8949C55.5957 49.9565 55.5419 49.995 55.5495 50.0566C55.5495 50.072 55.5265 50.0874 55.5188 50.1105C55.488 50.1798 55.4419 50.2491 55.4189 50.3261C55.4189 50.3261 55.4189 50.3261 55.4189 50.3338C55.365 50.3646 55.3574 50.4185 55.3189 50.4647C55.2882 50.4955 55.2805 50.534 55.2574 50.5648C55.2497 50.5802 55.242 50.6033 55.2267 50.6187C55.1959 50.6495 55.1575 50.6726 55.1498 50.7266C55.1498 50.742 55.1267 50.7574 55.1114 50.7651C55.0806 50.7959 55.0499 50.819 55.0268 50.8498C55.0191 50.8575 54.996 50.8729 54.996 50.8883C54.996 50.9345 54.9576 50.9576 54.9269 50.9807C54.8961 51.0038 54.8807 51.0346 54.8346 51.0423C54.8192 51.0423 54.8039 51.0654 54.7885 51.0808C54.7424 51.127 54.6962 51.1732 54.6501 51.2194C54.627 51.2425 54.6117 51.2656 54.5732 51.2733C54.5579 51.2733 54.5348 51.2964 54.5194 51.3118C54.4733 51.3657 54.4195 51.4042 54.358 51.435C54.0274 51.6507 53.6661 51.8124 53.2817 51.9279C53.0281 52.0049 52.7667 52.0665 52.5053 52.0973C52.3439 52.1204 52.1824 52.1358 52.021 52.1512C52.0056 52.1512 51.9903 52.1589 51.9672 52.1666H51.2676L51.2599 52.2359Z"
        fill="#2F618F" />
</svg>